0
SECTION
2
HEADER
9
$ANGDIR
70
1
9
$AUNITS
70
0
9
$PROJECTNAME
1
board
9
$TDCREATE
40
2459277.43192857
9
$INSUNITS
70
4
0
ENDSEC
0
SECTION
2
ENTITIES
0
POLYLINE
66
1
8
outline
10
0.0
20
0.0
30
0.0
70
1
0
VERTEX
8
0
10
0
20
0
30
0
0
VERTEX
8
0
10
75
20
0
30
0
0
VERTEX
8
0
10
75
20
100
30
0
0
VERTEX
8
0
10
0
20
100
30
0
0
VERTEX
8
0
10
0
20
0
30
0
0
SEQEND
0
POLYLINE
66
1
8
1_copper
10
0.0
20
0.0
30
0.0
70
1
0
VERTEX
8
0
10
52.39865625
20
72.30684375
30
0
0
VERTEX
8
0
10
52.383178125
20
72.51091562500001
30
0
0
VERTEX
8
0
10
52.3599875
20
72.71425625
30
0
0
VERTEX
8
0
10
52.32911875
20
72.91657500000001
30
0
0
VERTEX
8
0
10
52.29061875
20
73.11758125
30
0
0
VERTEX
8
0
10
52.2445375
20
73.316984375
30
0
0
VERTEX
8
0
10
52.19094375
20
73.514503125
30
0
0
VERTEX
8
0
10
52.129915625
20
73.70985
30
0
0
VERTEX
8
0
10
52.0615375
20
73.90275
30
0
0
VERTEX
8
0
10
51.985909375000006
20
74.09292500000001
30
0
0
VERTEX
8
0
10
51.903140625000006
20
74.2801
30
0
0
VERTEX
8
0
10
51.813346875
20
74.46400625
30
0
0
VERTEX
8
0
10
51.71665625
20
74.64438750000001
30
0
0
VERTEX
8
0
10
51.613209375000004
20
74.82097812500001
30
0
0
VERTEX
8
0
10
51.50315625
20
74.993528125
30
0
0
VERTEX
8
0
10
51.386653125
20
75.16179062500001
30
0
0
VERTEX
8
0
10
51.2638625
20
75.325521875
30
0
0
VERTEX
8
0
10
51.134965625
20
75.484490625
30
0
0
VERTEX
8
0
10
51.000146875000006
20
75.63846875
30
0
0
VERTEX
8
0
10
50.859596875
20
75.787234375
30
0
0
VERTEX
8
0
10
50.713518750000006
20
75.930575
30
0
0
VERTEX
8
0
10
50.56211875
20
76.068284375
30
0
0
VERTEX
8
0
10
50.40561875
20
76.200165625
30
0
0
VERTEX
8
0
10
50.244237500000004
20
76.32603125
30
0
0
VERTEX
8
0
10
50.078209375
20
76.4457
30
0
0
VERTEX
8
0
10
49.907775
20
76.559
30
0
0
VERTEX
8
0
10
49.733171875000004
20
76.66576875
30
0
0
VERTEX
8
0
10
49.55465625
20
76.76585625
30
0
0
VERTEX
8
0
10
49.372478125
20
76.85911250000001
30
0
0
VERTEX
8
0
10
49.186903125
20
76.945409375
30
0
0
VERTEX
8
0
10
48.998193750000006
20
77.024625
30
0
0
VERTEX
8
0
10
48.806625000000004
20
77.096640625
30
0
0
VERTEX
8
0
10
48.612465625000006
20
77.16135625
30
0
0
VERTEX
8
0
10
48.415996875000005
20
77.218675
30
0
0
VERTEX
8
0
10
48.2175
20
77.268521875
30
0
0
VERTEX
8
0
10
48.017259375
20
77.310821875
30
0
0
VERTEX
8
0
10
47.815562500000006
20
77.3455125
30
0
0
VERTEX
8
0
10
47.612696875000005
20
77.37254375
30
0
0
VERTEX
8
0
10
47.408953125000004
20
77.39188125
30
0
0
VERTEX
8
0
10
47.204621875
20
77.403496875
30
0
0
VERTEX
8
0
10
47
20
77.40736875
30
0
0
VERTEX
8
0
10
46.795378125
20
77.403496875
30
0
0
VERTEX
8
0
10
46.591046875
20
77.39188125
30
0
0
VERTEX
8
0
10
46.387303125
20
77.37254375
30
0
0
VERTEX
8
0
10
46.1844375
20
77.3455125
30
0
0
VERTEX
8
0
10
45.982740625000005
20
77.310821875
30
0
0
VERTEX
8
0
10
45.7825
20
77.268521875
30
0
0
VERTEX
8
0
10
45.584003125
20
77.218675
30
0
0
VERTEX
8
0
10
45.387534375
20
77.16135625
30
0
0
VERTEX
8
0
10
45.193375
20
77.096640625
30
0
0
VERTEX
8
0
10
45.00180625
20
77.024625
30
0
0
VERTEX
8
0
10
44.813096875
20
76.945409375
30
0
0
VERTEX
8
0
10
44.627521875
20
76.85911250000001
30
0
0
VERTEX
8
0
10
44.44534375
20
76.76585625
30
0
0
VERTEX
8
0
10
44.266828125
20
76.66576875
30
0
0
VERTEX
8
0
10
44.092225
20
76.559
30
0
0
VERTEX
8
0
10
43.921790625
20
76.4457
30
0
0
VERTEX
8
0
10
43.7557625
20
76.32603125
30
0
0
VERTEX
8
0
10
43.594381250000005
20
76.200165625
30
0
0
VERTEX
8
0
10
43.437881250000004
20
76.068284375
30
0
0
VERTEX
8
0
10
43.28648125
20
75.930575
30
0
0
VERTEX
8
0
10
43.140403125
20
75.787234375
30
0
0
VERTEX
8
0
10
42.999853125
20
75.63846875
30
0
0
VERTEX
8
0
10
42.865034375
20
75.484490625
30
0
0
VERTEX
8
0
10
42.736137500000005
20
75.325521875
30
0
0
VERTEX
8
0
10
42.613346875000005
20
75.16179062500001
30
0
0
VERTEX
8
0
10
42.496843750000004
20
74.993528125
30
0
0
VERTEX
8
0
10
42.386790625
20
74.82097812500001
30
0
0
VERTEX
8
0
10
42.28334375
20
74.64438750000001
30
0
0
VERTEX
8
0
10
42.186653125
20
74.46400625
30
0
0
VERTEX
8
0
10
42.096859375
20
74.2801
30
0
0
VERTEX
8
0
10
42.014090625
20
74.09292500000001
30
0
0
VERTEX
8
0
10
41.9384625
20
73.90275
30
0
0
VERTEX
8
0
10
41.870084375000005
20
73.70985
30
0
0
VERTEX
8
0
10
41.809056250000005
20
73.514503125
30
0
0
VERTEX
8
0
10
41.7554625
20
73.316984375
30
0
0
VERTEX
8
0
10
41.70938125
20
73.11758125
30
0
0
VERTEX
8
0
10
41.67088125
20
72.91657500000001
30
0
0
VERTEX
8
0
10
41.640012500000005
20
72.71425625
30
0
0
VERTEX
8
0
10
41.616821875
20
72.51091562500001
30
0
0
VERTEX
8
0
10
41.601343750000005
20
72.30684375
30
0
0
VERTEX
8
0
10
41.5936
20
72.10233125
30
0
0
VERTEX
8
0
10
41.5936
20
52
30
0
0
VERTEX
8
0
10
41.596721875
20
51.949721875
30
0
42
0.8650765546717226
0
VERTEX
8
0
10
42.400890625
20
51.933315625000006
30
0
0
VERTEX
8
0
10
42.406400000000005
20
52
30
0
0
VERTEX
8
0
10
42.406400000000005
20
72
30
0
0
VERTEX
8
0
10
42.407221875000005
20
72.08693125
30
0
0
VERTEX
8
0
10
42.413803125
20
72.260665625
30
0
0
VERTEX
8
0
10
42.426950000000005
20
72.434028125
30
0
0
VERTEX
8
0
10
42.446650000000005
20
72.60676562500001
30
0
0
VERTEX
8
0
10
42.472871875
20
72.7786375
30
0
0
VERTEX
8
0
10
42.50558125
20
72.94939375
30
0
0
VERTEX
8
0
10
42.544725
20
73.11878750000001
30
0
0
VERTEX
8
0
10
42.590253125000004
20
73.28658125
30
0
0
VERTEX
8
0
10
42.642096875
20
73.45253125
30
0
0
VERTEX
8
0
10
42.700184375
20
73.6164
30
0
0
VERTEX
8
0
10
42.76443125
20
73.77795312500001
30
0
0
VERTEX
8
0
10
42.834746875
20
73.9369625
30
0
0
VERTEX
8
0
10
42.911025
20
74.09319375
30
0
0
VERTEX
8
0
10
42.993165625
20
74.246425
30
0
0
VERTEX
8
0
10
43.08104375
20
74.396440625
30
0
0
VERTEX
8
0
10
43.174534375
20
74.543025
30
0
0
VERTEX
8
0
10
43.273506250000004
20
74.68596562500001
30
0
0
VERTEX
8
0
10
43.377815625000004
20
74.82505625
30
0
0
VERTEX
8
0
10
43.487315625
20
74.960103125
30
0
0
VERTEX
8
0
10
43.601846875
20
75.09090625
30
0
0
VERTEX
8
0
10
43.72124375
20
75.217284375
30
0
0
VERTEX
8
0
10
43.845340625
20
75.339053125
30
0
0
VERTEX
8
0
10
43.973953125
20
75.45603750000001
30
0
0
VERTEX
8
0
10
44.106903125
20
75.568071875
30
0
0
VERTEX
8
0
10
44.243996875
20
75.674996875
30
0
0
VERTEX
8
0
10
44.3850375
20
75.77665625
30
0
0
VERTEX
8
0
10
44.529825
20
75.87290625
30
0
0
VERTEX
8
0
10
44.67815
20
75.96360625
30
0
0
VERTEX
8
0
10
44.829803125000005
20
76.04862812500001
30
0
0
VERTEX
8
0
10
44.9845625
20
76.127853125
30
0
0
VERTEX
8
0
10
45.142209375
20
76.20116250000001
30
0
0
VERTEX
8
0
10
45.302518750000004
20
76.26845625
30
0
0
VERTEX
8
0
10
45.465259375
20
76.329634375
30
0
0
VERTEX
8
0
10
45.630196875
20
76.384609375
30
0
0
VERTEX
8
0
10
45.7971
20
76.43330625
30
0
0
VERTEX
8
0
10
45.965725
20
76.47565
30
0
0
VERTEX
8
0
10
46.135828125
20
76.51158125
30
0
0
VERTEX
8
0
10
46.307175
20
76.541053125
30
0
0
VERTEX
8
0
10
46.479509375
20
76.56401562500001
30
0
0
VERTEX
8
0
10
46.652590625
20
76.58044375
30
0
0
VERTEX
8
0
10
46.826171875
20
76.590309375
30
0
0
VERTEX
8
0
10
47
20
76.59360000000001
30
0
0
VERTEX
8
0
10
47.173828125
20
76.590309375
30
0
0
VERTEX
8
0
10
47.347409375000005
20
76.58044375
30
0
0
VERTEX
8
0
10
47.520490625
20
76.56401562500001
30
0
0
VERTEX
8
0
10
47.692825
20
76.541053125
30
0
0
VERTEX
8
0
10
47.864171875000004
20
76.51158125
30
0
0
VERTEX
8
0
10
48.034275
20
76.47565
30
0
0
VERTEX
8
0
10
48.2029
20
76.43330625
30
0
0
VERTEX
8
0
10
48.369803125000004
20
76.384609375
30
0
0
VERTEX
8
0
10
48.534740625000005
20
76.329634375
30
0
0
VERTEX
8
0
10
48.69748125
20
76.26845625
30
0
0
VERTEX
8
0
10
48.857790625
20
76.20116250000001
30
0
0
VERTEX
8
0
10
49.015437500000004
20
76.127853125
30
0
0
VERTEX
8
0
10
49.170196875
20
76.04862812500001
30
0
0
VERTEX
8
0
10
49.321850000000005
20
75.96360625
30
0
0
VERTEX
8
0
10
49.470175000000005
20
75.87290625
30
0
0
VERTEX
8
0
10
49.614962500000004
20
75.77665625
30
0
0
VERTEX
8
0
10
49.756003125
20
75.674996875
30
0
0
VERTEX
8
0
10
49.893096875000005
20
75.568071875
30
0
0
VERTEX
8
0
10
50.026046875000006
20
75.45603750000001
30
0
0
VERTEX
8
0
10
50.154659375
20
75.339053125
30
0
0
VERTEX
8
0
10
50.27875625
20
75.217284375
30
0
0
VERTEX
8
0
10
50.398153125
20
75.09090625
30
0
0
VERTEX
8
0
10
50.512684375
20
74.960103125
30
0
0
VERTEX
8
0
10
50.622184375
20
74.82505625
30
0
0
VERTEX
8
0
10
50.72649375
20
74.68596562500001
30
0
0
VERTEX
8
0
10
50.825465625
20
74.543025
30
0
0
VERTEX
8
0
10
50.91895625
20
74.396440625
30
0
0
VERTEX
8
0
10
51.006834375000004
20
74.246425
30
0
0
VERTEX
8
0
10
51.088975000000005
20
74.09319375
30
0
0
VERTEX
8
0
10
51.165253125
20
73.9369625
30
0
0
VERTEX
8
0
10
51.235568750000006
20
73.77795312500001
30
0
0
VERTEX
8
0
10
51.299815625
20
73.6164
30
0
0
VERTEX
8
0
10
51.357903125
20
73.45253125
30
0
0
VERTEX
8
0
10
51.409746875
20
73.28658125
30
0
0
VERTEX
8
0
10
51.455275
20
73.11878750000001
30
0
0
VERTEX
8
0
10
51.49441875
20
72.94939375
30
0
0
VERTEX
8
0
10
51.527128125000004
20
72.7786375
30
0
0
VERTEX
8
0
10
51.55335
20
72.60676562500001
30
0
0
VERTEX
8
0
10
51.57305
20
72.434028125
30
0
0
VERTEX
8
0
10
51.586196875000006
20
72.260665625
30
0
0
VERTEX
8
0
10
51.592778125
20
72.08693125
30
0
0
VERTEX
8
0
10
51.5936
20
72
30
0
0
VERTEX
8
0
10
51.5936
20
58
30
0
0
VERTEX
8
0
10
51.596721875
20
57.949721875
30
0
42
0.8650765546717226
0
VERTEX
8
0
10
52.400890625
20
57.933315625000006
30
0
0
VERTEX
8
0
10
52.406400000000005
20
58
30
0
0
VERTEX
8
0
10
52.406400000000005
20
72.10233125
30
0
0
SEQEND
0
POLYLINE
66
1
8
1_copper
10
0.0
20
0.0
30
0.0
70
1
0
VERTEX
8
0
10
33.5936
20
63.406400000000005
30
0
0
VERTEX
8
0
10
24.4064
20
63.406400000000005
30
0
0
VERTEX
8
0
10
24.4064
20
69.59360000000001
30
0
0
VERTEX
8
0
10
33.5936
20
69.59360000000001
30
0
0
SEQEND
0
POLYLINE
66
1
8
1_copper
10
0.0
20
0.0
30
0.0
70
1
0
VERTEX
8
0
10
34.406400000000005
20
63.406400000000005
30
0
0
VERTEX
8
0
10
34.406400000000005
20
69.59360000000001
30
0
0
VERTEX
8
0
10
34.5936
20
69.59360000000001
30
0
0
VERTEX
8
0
10
34.5936
20
63.406400000000005
30
0
0
SEQEND
0
POLYLINE
66
1
8
1_copper
10
0.0
20
0.0
30
0.0
70
1
0
VERTEX
8
0
10
23.4064
20
63.406400000000005
30
0
0
VERTEX
8
0
10
23.4064
20
69.59360000000001
30
0
0
VERTEX
8
0
10
23.593600000000002
20
69.59360000000001
30
0
0
VERTEX
8
0
10
23.593600000000002
20
63.406400000000005
30
0
0
SEQEND
0
POLYLINE
66
1
8
1_copper
10
0.0
20
0.0
30
0.0
70
1
0
VERTEX
8
0
10
28.479509375000003
20
47.435984375000004
30
0
0
VERTEX
8
0
10
28.307175
20
47.458946875
30
0
0
VERTEX
8
0
10
28.135828125
20
47.48841875
30
0
0
VERTEX
8
0
10
27.965725000000003
20
47.524350000000005
30
0
0
VERTEX
8
0
10
27.7971
20
47.56669375
30
0
0
VERTEX
8
0
10
27.630196875000003
20
47.615390625
30
0
0
VERTEX
8
0
10
27.465259375000002
20
47.670365625
30
0
0
VERTEX
8
0
10
27.30251875
20
47.73154375
30
0
0
VERTEX
8
0
10
27.142209375
20
47.798837500000005
30
0
0
VERTEX
8
0
10
26.984562500000003
20
47.872146875000006
30
0
0
VERTEX
8
0
10
26.829803125
20
47.951371875
30
0
0
VERTEX
8
0
10
26.678150000000002
20
48.03639375
30
0
0
VERTEX
8
0
10
26.529825000000002
20
48.12709375
30
0
0
VERTEX
8
0
10
26.385037500000003
20
48.223343750000005
30
0
0
VERTEX
8
0
10
26.243996875
20
48.325003125
30
0
0
VERTEX
8
0
10
26.106903125000002
20
48.431928125
30
0
0
VERTEX
8
0
10
25.973953125
20
48.5439625
30
0
0
VERTEX
8
0
10
25.845340625000002
20
48.660946875
30
0
0
VERTEX
8
0
10
25.721243750000003
20
48.782715625
30
0
0
VERTEX
8
0
10
25.601846875
20
48.909093750000004
30
0
0
VERTEX
8
0
10
25.487315625
20
49.039896875000004
30
0
0
VERTEX
8
0
10
25.377815625
20
49.174943750000004
30
0
0
VERTEX
8
0
10
25.27350625
20
49.314034375000006
30
0
0
VERTEX
8
0
10
25.174534375
20
49.456975
30
0
0
VERTEX
8
0
10
25.081043750000003
20
49.603559375
30
0
0
VERTEX
8
0
10
24.993165625
20
49.753575000000005
30
0
0
VERTEX
8
0
10
24.911025000000002
20
49.90680625
30
0
0
VERTEX
8
0
10
24.834746875
20
50.0630375
30
0
0
VERTEX
8
0
10
24.76443125
20
50.222046875000004
30
0
0
VERTEX
8
0
10
24.700184375000003
20
50.3836
30
0
0
VERTEX
8
0
10
24.642096875
20
50.54746875
30
0
0
VERTEX
8
0
10
24.590253125
20
50.71341875
30
0
0
VERTEX
8
0
10
24.544725
20
50.881212500000004
30
0
0
VERTEX
8
0
10
24.505581250000002
20
51.05060625
30
0
0
VERTEX
8
0
10
24.472871875000003
20
51.221362500000005
30
0
0
VERTEX
8
0
10
24.44665
20
51.393234375000006
30
0
0
VERTEX
8
0
10
24.42695
20
51.565971875
30
0
0
VERTEX
8
0
10
24.413803125
20
51.739334375000006
30
0
0
VERTEX
8
0
10
24.407221875
20
51.91306875
30
0
0
VERTEX
8
0
10
24.4064
20
52
30
0
0
VERTEX
8
0
10
24.4064
20
62.5936
30
0
0
VERTEX
8
0
10
33.5936
20
62.5936
30
0
0
VERTEX
8
0
10
33.5936
20
52
30
0
0
VERTEX
8
0
10
33.592778125
20
51.91306875
30
0
0
VERTEX
8
0
10
33.586196875
20
51.739334375000006
30
0
0
VERTEX
8
0
10
33.57305
20
51.565971875
30
0
0
VERTEX
8
0
10
33.55335
20
51.393234375000006
30
0
0
VERTEX
8
0
10
33.527128125000004
20
51.221362500000005
30
0
0
VERTEX
8
0
10
33.49441875
20
51.05060625
30
0
0
VERTEX
8
0
10
33.455275
20
50.881212500000004
30
0
0
VERTEX
8
0
10
33.409746875
20
50.71341875
30
0
0
VERTEX
8
0
10
33.357903125
20
50.54746875
30
0
0
VERTEX
8
0
10
33.299815625
20
50.3836
30
0
0
VERTEX
8
0
10
33.23556875
20
50.222046875000004
30
0
0
VERTEX
8
0
10
33.165253125
20
50.0630375
30
0
0
VERTEX
8
0
10
33.088975000000005
20
49.90680625
30
0
0
VERTEX
8
0
10
33.006834375000004
20
49.753575000000005
30
0
0
VERTEX
8
0
10
32.91895625
20
49.603559375
30
0
0
VERTEX
8
0
10
32.825465625
20
49.456975
30
0
0
VERTEX
8
0
10
32.72649375
20
49.314034375000006
30
0
0
VERTEX
8
0
10
32.622184375
20
49.174943750000004
30
0
0
VERTEX
8
0
10
32.512684375
20
49.039896875000004
30
0
0
VERTEX
8
0
10
32.398153125
20
48.909093750000004
30
0
0
VERTEX
8
0
10
32.27875625
20
48.782715625
30
0
0
VERTEX
8
0
10
32.154659375
20
48.660946875
30
0
0
VERTEX
8
0
10
32.026046875
20
48.5439625
30
0
0
VERTEX
8
0
10
31.893096875
20
48.431928125
30
0
0
VERTEX
8
0
10
31.756003125000003
20
48.325003125
30
0
0
VERTEX
8
0
10
31.6149625
20
48.223343750000005
30
0
0
VERTEX
8
0
10
31.470175
20
48.12709375
30
0
0
VERTEX
8
0
10
31.32185
20
48.03639375
30
0
0
VERTEX
8
0
10
31.170196875000002
20
47.951371875
30
0
0
VERTEX
8
0
10
31.0154375
20
47.872146875000006
30
0
0
VERTEX
8
0
10
30.857790625
20
47.798837500000005
30
0
0
VERTEX
8
0
10
30.697481250000003
20
47.73154375
30
0
0
VERTEX
8
0
10
30.534740625
20
47.670365625
30
0
0
VERTEX
8
0
10
30.369803125
20
47.615390625
30
0
0
VERTEX
8
0
10
30.202900000000003
20
47.56669375
30
0
0
VERTEX
8
0
10
30.034275
20
47.524350000000005
30
0
0
VERTEX
8
0
10
29.864171875
20
47.48841875
30
0
0
VERTEX
8
0
10
29.692825000000003
20
47.458946875
30
0
0
VERTEX
8
0
10
29.520490625
20
47.435984375000004
30
0
0
VERTEX
8
0
10
29.347409375
20
47.41955625
30
0
0
VERTEX
8
0
10
29.173828125
20
47.409690625
30
0
0
VERTEX
8
0
10
29
20
47.406400000000005
30
0
0
VERTEX
8
0
10
28.826171875
20
47.409690625
30
0
0
VERTEX
8
0
10
28.652590625000002
20
47.41955625
30
0
0
SEQEND
0
POLYLINE
66
1
8
1_copper
10
0.0
20
0.0
30
0.0
70
1
0
VERTEX
8
0
10
33.5936
20
72
30
0
0
VERTEX
8
0
10
33.5936
20
70.4064
30
0
0
VERTEX
8
0
10
24.4064
20
70.4064
30
0
0
VERTEX
8
0
10
24.4064
20
72
30
0
0
VERTEX
8
0
10
24.407221875
20
72.08693125
30
0
0
VERTEX
8
0
10
24.413803125
20
72.260665625
30
0
0
VERTEX
8
0
10
24.42695
20
72.434028125
30
0
0
VERTEX
8
0
10
24.44665
20
72.60676562500001
30
0
0
VERTEX
8
0
10
24.472871875000003
20
72.7786375
30
0
0
VERTEX
8
0
10
24.505581250000002
20
72.94939375
30
0
0
VERTEX
8
0
10
24.544725
20
73.11878750000001
30
0
0
VERTEX
8
0
10
24.590253125
20
73.28658125
30
0
0
VERTEX
8
0
10
24.642096875
20
73.45253125
30
0
0
VERTEX
8
0
10
24.700184375000003
20
73.6164
30
0
0
VERTEX
8
0
10
24.76443125
20
73.77795312500001
30
0
0
VERTEX
8
0
10
24.834746875
20
73.9369625
30
0
0
VERTEX
8
0
10
24.911025000000002
20
74.09319375
30
0
0
VERTEX
8
0
10
24.993165625
20
74.246425
30
0
0
VERTEX
8
0
10
25.081043750000003
20
74.396440625
30
0
0
VERTEX
8
0
10
25.174534375
20
74.543025
30
0
0
VERTEX
8
0
10
25.27350625
20
74.68596562500001
30
0
0
VERTEX
8
0
10
25.377815625
20
74.82505625
30
0
0
VERTEX
8
0
10
25.487315625
20
74.960103125
30
0
0
VERTEX
8
0
10
25.601846875
20
75.09090625
30
0
0
VERTEX
8
0
10
25.721243750000003
20
75.217284375
30
0
0
VERTEX
8
0
10
25.845340625000002
20
75.339053125
30
0
0
VERTEX
8
0
10
25.973953125
20
75.45603750000001
30
0
0
VERTEX
8
0
10
26.106903125000002
20
75.568071875
30
0
0
VERTEX
8
0
10
26.243996875
20
75.674996875
30
0
0
VERTEX
8
0
10
26.385037500000003
20
75.77665625
30
0
0
VERTEX
8
0
10
26.529825000000002
20
75.87290625
30
0
0
VERTEX
8
0
10
26.678150000000002
20
75.96360625
30
0
0
VERTEX
8
0
10
26.829803125
20
76.04862812500001
30
0
0
VERTEX
8
0
10
26.984562500000003
20
76.127853125
30
0
0
VERTEX
8
0
10
27.142209375
20
76.20116250000001
30
0
0
VERTEX
8
0
10
27.30251875
20
76.26845625
30
0
0
VERTEX
8
0
10
27.465259375000002
20
76.329634375
30
0
0
VERTEX
8
0
10
27.630196875000003
20
76.384609375
30
0
0
VERTEX
8
0
10
27.7971
20
76.43330625
30
0
0
VERTEX
8
0
10
27.965725000000003
20
76.47565
30
0
0
VERTEX
8
0
10
28.135828125
20
76.51158125
30
0
0
VERTEX
8
0
10
28.307175
20
76.541053125
30
0
0
VERTEX
8
0
10
28.479509375000003
20
76.56401562500001
30
0
0
VERTEX
8
0
10
28.652590625000002
20
76.58044375
30
0
0
VERTEX
8
0
10
28.826171875
20
76.590309375
30
0
0
VERTEX
8
0
10
29
20
76.59360000000001
30
0
0
VERTEX
8
0
10
29.173828125
20
76.590309375
30
0
0
VERTEX
8
0
10
29.347409375
20
76.58044375
30
0
0
VERTEX
8
0
10
29.520490625
20
76.56401562500001
30
0
0
VERTEX
8
0
10
29.692825000000003
20
76.541053125
30
0
0
VERTEX
8
0
10
29.864171875
20
76.51158125
30
0
0
VERTEX
8
0
10
30.034275
20
76.47565
30
0
0
VERTEX
8
0
10
30.202900000000003
20
76.43330625
30
0
0
VERTEX
8
0
10
30.369803125
20
76.384609375
30
0
0
VERTEX
8
0
10
30.534740625
20
76.329634375
30
0
0
VERTEX
8
0
10
30.697481250000003
20
76.26845625
30
0
0
VERTEX
8
0
10
30.857790625
20
76.20116250000001
30
0
0
VERTEX
8
0
10
31.0154375
20
76.127853125
30
0
0
VERTEX
8
0
10
31.170196875000002
20
76.04862812500001
30
0
0
VERTEX
8
0
10
31.32185
20
75.96360625
30
0
0
VERTEX
8
0
10
31.470175
20
75.87290625
30
0
0
VERTEX
8
0
10
31.6149625
20
75.77665625
30
0
0
VERTEX
8
0
10
31.756003125000003
20
75.674996875
30
0
0
VERTEX
8
0
10
31.893096875
20
75.568071875
30
0
0
VERTEX
8
0
10
32.026046875
20
75.45603750000001
30
0
0
VERTEX
8
0
10
32.154659375
20
75.339053125
30
0
0
VERTEX
8
0
10
32.27875625
20
75.217284375
30
0
0
VERTEX
8
0
10
32.398153125
20
75.09090625
30
0
0
VERTEX
8
0
10
32.512684375
20
74.960103125
30
0
0
VERTEX
8
0
10
32.622184375
20
74.82505625
30
0
0
VERTEX
8
0
10
32.72649375
20
74.68596562500001
30
0
0
VERTEX
8
0
10
32.825465625
20
74.543025
30
0
0
VERTEX
8
0
10
32.91895625
20
74.396440625
30
0
0
VERTEX
8
0
10
33.006834375000004
20
74.246425
30
0
0
VERTEX
8
0
10
33.088975000000005
20
74.09319375
30
0
0
VERTEX
8
0
10
33.165253125
20
73.9369625
30
0
0
VERTEX
8
0
10
33.23556875
20
73.77795312500001
30
0
0
VERTEX
8
0
10
33.299815625
20
73.6164
30
0
0
VERTEX
8
0
10
33.357903125
20
73.45253125
30
0
0
VERTEX
8
0
10
33.409746875
20
73.28658125
30
0
0
VERTEX
8
0
10
33.455275
20
73.11878750000001
30
0
0
VERTEX
8
0
10
33.49441875
20
72.94939375
30
0
0
VERTEX
8
0
10
33.527128125000004
20
72.7786375
30
0
0
VERTEX
8
0
10
33.55335
20
72.60676562500001
30
0
0
VERTEX
8
0
10
33.57305
20
72.434028125
30
0
0
VERTEX
8
0
10
33.586196875
20
72.260665625
30
0
0
VERTEX
8
0
10
33.592778125
20
72.08693125
30
0
0
SEQEND
0
POLYLINE
66
1
8
1_copper
10
0.0
20
0.0
30
0.0
70
1
0
VERTEX
8
0
10
35
20
62.5936
30
0
42
0.3667193550062944
0
VERTEX
8
0
10
35.400890625
20
62.933315625000006
30
0
0
VERTEX
8
0
10
35.401815625000005
20
62.944503125000004
30
0
42
0.027416808266298623
0
VERTEX
8
0
10
35.405475
20
62.988803125000004
30
0
0
VERTEX
8
0
10
35.406400000000005
20
63
30
0
0
VERTEX
8
0
10
35.406400000000005
20
70
30
0
0
VERTEX
8
0
10
35.405875
20
70.00845625000001
30
0
0
VERTEX
8
0
10
35.406046875
20
70.016909375
30
0
42
0.3549595483564714
0
VERTEX
8
0
10
35.066684375
20
70.400890625
30
0
0
VERTEX
8
0
10
35.055496875
20
70.401815625
30
0
42
0.027416808266298623
0
VERTEX
8
0
10
35.011196875
20
70.40547500000001
30
0
0
VERTEX
8
0
10
35
20
70.4064
30
0
0
VERTEX
8
0
10
34.406400000000005
20
70.4064
30
0
0
VERTEX
8
0
10
34.406400000000005
20
72.10233125
30
0
0
VERTEX
8
0
10
34.39865625
20
72.30684375
30
0
0
VERTEX
8
0
10
34.383178125
20
72.51091562500001
30
0
0
VERTEX
8
0
10
34.3599875
20
72.71425625
30
0
0
VERTEX
8
0
10
34.32911875
20
72.91657500000001
30
0
0
VERTEX
8
0
10
34.29061875
20
73.11758125
30
0
0
VERTEX
8
0
10
34.2445375
20
73.316984375
30
0
0
VERTEX
8
0
10
34.19094375
20
73.514503125
30
0
0
VERTEX
8
0
10
34.129915625
20
73.70985
30
0
0
VERTEX
8
0
10
34.0615375
20
73.90275
30
0
0
VERTEX
8
0
10
33.985909375
20
74.09292500000001
30
0
0
VERTEX
8
0
10
33.903140625
20
74.2801
30
0
0
VERTEX
8
0
10
33.813346875
20
74.46400625
30
0
0
VERTEX
8
0
10
33.71665625
20
74.64438750000001
30
0
0
VERTEX
8
0
10
33.613209375000004
20
74.82097812500001
30
0
0
VERTEX
8
0
10
33.50315625
20
74.993528125
30
0
0
VERTEX
8
0
10
33.386653125
20
75.16179062500001
30
0
0
VERTEX
8
0
10
33.2638625
20
75.325521875
30
0
0
VERTEX
8
0
10
33.134965625
20
75.484490625
30
0
0
VERTEX
8
0
10
33.000146875
20
75.63846875
30
0
0
VERTEX
8
0
10
32.859596875
20
75.787234375
30
0
0
VERTEX
8
0
10
32.71351875
20
75.930575
30
0
0
VERTEX
8
0
10
32.56211875
20
76.068284375
30
0
0
VERTEX
8
0
10
32.40561875
20
76.200165625
30
0
0
VERTEX
8
0
10
32.244237500000004
20
76.32603125
30
0
0
VERTEX
8
0
10
32.078209375
20
76.4457
30
0
0
VERTEX
8
0
10
31.907775
20
76.559
30
0
0
VERTEX
8
0
10
31.733171875
20
76.66576875
30
0
0
VERTEX
8
0
10
31.55465625
20
76.76585625
30
0
0
VERTEX
8
0
10
31.372478125
20
76.85911250000001
30
0
0
VERTEX
8
0
10
31.186903125
20
76.945409375
30
0
0
VERTEX
8
0
10
30.998193750000002
20
77.024625
30
0
0
VERTEX
8
0
10
30.806625
20
77.096640625
30
0
0
VERTEX
8
0
10
30.612465625000002
20
77.16135625
30
0
0
VERTEX
8
0
10
30.415996875
20
77.218675
30
0
0
VERTEX
8
0
10
30.2175
20
77.268521875
30
0
0
VERTEX
8
0
10
30.017259375000002
20
77.310821875
30
0
0
VERTEX
8
0
10
29.815562500000002
20
77.3455125
30
0
0
VERTEX
8
0
10
29.612696875
20
77.37254375
30
0
0
VERTEX
8
0
10
29.408953125
20
77.39188125
30
0
0
VERTEX
8
0
10
29.204621875
20
77.403496875
30
0
0
VERTEX
8
0
10
29
20
77.40736875
30
0
0
VERTEX
8
0
10
28.795378125000003
20
77.403496875
30
0
0
VERTEX
8
0
10
28.591046875
20
77.39188125
30
0
0
VERTEX
8
0
10
28.387303125000003
20
77.37254375
30
0
0
VERTEX
8
0
10
28.1844375
20
77.3455125
30
0
0
VERTEX
8
0
10
27.982740625
20
77.310821875
30
0
0
VERTEX
8
0
10
27.782500000000002
20
77.268521875
30
0
0
VERTEX
8
0
10
27.584003125000002
20
77.218675
30
0
0
VERTEX
8
0
10
27.387534375
20
77.16135625
30
0
0
VERTEX
8
0
10
27.193375
20
77.096640625
30
0
0
VERTEX
8
0
10
27.00180625
20
77.024625
30
0
0
VERTEX
8
0
10
26.813096875000003
20
76.945409375
30
0
0
VERTEX
8
0
10
26.627521875000003
20
76.85911250000001
30
0
0
VERTEX
8
0
10
26.445343750000003
20
76.76585625
30
0
0
VERTEX
8
0
10
26.266828125
20
76.66576875
30
0
0
VERTEX
8
0
10
26.092225000000003
20
76.559
30
0
0
VERTEX
8
0
10
25.921790625
20
76.4457
30
0
0
VERTEX
8
0
10
25.755762500000003
20
76.32603125
30
0
0
VERTEX
8
0
10
25.59438125
20
76.200165625
30
0
0
VERTEX
8
0
10
25.43788125
20
76.068284375
30
0
0
VERTEX
8
0
10
25.28648125
20
75.930575
30
0
0
VERTEX
8
0
10
25.140403125000002
20
75.787234375
30
0
0
VERTEX
8
0
10
24.999853125
20
75.63846875
30
0
0
VERTEX
8
0
10
24.865034375
20
75.484490625
30
0
0
VERTEX
8
0
10
24.7361375
20
75.325521875
30
0
0
VERTEX
8
0
10
24.613346875
20
75.16179062500001
30
0
0
VERTEX
8
0
10
24.49684375
20
74.993528125
30
0
0
VERTEX
8
0
10
24.386790625
20
74.82097812500001
30
0
0
VERTEX
8
0
10
24.28334375
20
74.64438750000001
30
0
0
VERTEX
8
0
10
24.186653125
20
74.46400625
30
0
0
VERTEX
8
0
10
24.096859375
20
74.2801
30
0
0
VERTEX
8
0
10
24.014090625
20
74.09292500000001
30
0
0
VERTEX
8
0
10
23.9384625
20
73.90275
30
0
0
VERTEX
8
0
10
23.870084375
20
73.70985
30
0
0
VERTEX
8
0
10
23.80905625
20
73.514503125
30
0
0
VERTEX
8
0
10
23.7554625
20
73.316984375
30
0
0
VERTEX
8
0
10
23.70938125
20
73.11758125
30
0
0
VERTEX
8
0
10
23.67088125
20
72.91657500000001
30
0
0
VERTEX
8
0
10
23.6400125
20
72.71425625
30
0
0
VERTEX
8
0
10
23.616821875
20
72.51091562500001
30
0
0
VERTEX
8
0
10
23.60134375
20
72.30684375
30
0
0
VERTEX
8
0
10
23.593600000000002
20
72.10233125
30
0
0
VERTEX
8
0
10
23.593600000000002
20
70.4064
30
0
0
VERTEX
8
0
10
23
20
70.4064
30
0
0
VERTEX
8
0
10
22.99154375
20
70.40587500000001
30
0
0
VERTEX
8
0
10
22.983090625000003
20
70.406046875
30
0
42
0.3549595483564714
0
VERTEX
8
0
10
22.599109375
20
70.06668437500001
30
0
0
VERTEX
8
0
10
22.598184375000002
20
70.055496875
30
0
42
0.027416808266298623
0
VERTEX
8
0
10
22.594525
20
70.01119687500001
30
0
0
VERTEX
8
0
10
22.593600000000002
20
70
30
0
0
VERTEX
8
0
10
22.593600000000002
20
63
30
0
0
VERTEX
8
0
10
22.594125000000002
20
62.991543750000005
30
0
0
VERTEX
8
0
10
22.593953125000002
20
62.983090625
30
0
42
0.3549595483564714
0
VERTEX
8
0
10
22.933315625000002
20
62.599109375000005
30
0
0
VERTEX
8
0
10
22.944503125
20
62.598184375
30
0
42
0.027416808266298623
0
VERTEX
8
0
10
22.988803125
20
62.594525000000004
30
0
0
VERTEX
8
0
10
23
20
62.5936
30
0
0
VERTEX
8
0
10
23.593600000000002
20
62.5936
30
0
0
VERTEX
8
0
10
23.593600000000002
20
51.89766875
30
0
0
VERTEX
8
0
10
23.60134375
20
51.69315625
30
0
0
VERTEX
8
0
10
23.616821875
20
51.489084375000004
30
0
0
VERTEX
8
0
10
23.6400125
20
51.28574375
30
0
0
VERTEX
8
0
10
23.67088125
20
51.083425000000005
30
0
0
VERTEX
8
0
10
23.70938125
20
50.88241875
30
0
0
VERTEX
8
0
10
23.7554625
20
50.683015625
30
0
0
VERTEX
8
0
10
23.80905625
20
50.485496875
30
0
0
VERTEX
8
0
10
23.870084375
20
50.290150000000004
30
0
0
VERTEX
8
0
10
23.9384625
20
50.09725
30
0
0
VERTEX
8
0
10
24.014090625
20
49.907075
30
0
0
VERTEX
8
0
10
24.096859375
20
49.7199
30
0
0
VERTEX
8
0
10
24.186653125
20
49.53599375
30
0
0
VERTEX
8
0
10
24.28334375
20
49.3556125
30
0
0
VERTEX
8
0
10
24.386790625
20
49.179021875000004
30
0
0
VERTEX
8
0
10
24.49684375
20
49.006471875
30
0
0
VERTEX
8
0
10
24.613346875
20
48.838209375000005
30
0
0
VERTEX
8
0
10
24.7361375
20
48.674478125
30
0
0
VERTEX
8
0
10
24.865034375
20
48.515509375
30
0
0
VERTEX
8
0
10
24.999853125
20
48.361531250000006
30
0
0
VERTEX
8
0
10
25.140403125000002
20
48.212765625
30
0
0
VERTEX
8
0
10
25.28648125
20
48.069425
30
0
0
VERTEX
8
0
10
25.43788125
20
47.931715625
30
0
0
VERTEX
8
0
10
25.59438125
20
47.799834375
30
0
0
VERTEX
8
0
10
25.755762500000003
20
47.67396875
30
0
0
VERTEX
8
0
10
25.921790625
20
47.554300000000005
30
0
0
VERTEX
8
0
10
26.092225000000003
20
47.441
30
0
0
VERTEX
8
0
10
26.266828125
20
47.33423125
30
0
0
VERTEX
8
0
10
26.445343750000003
20
47.23414375
30
0
0
VERTEX
8
0
10
26.627521875000003
20
47.140887500000005
30
0
0
VERTEX
8
0
10
26.813096875000003
20
47.054590625
30
0
0
VERTEX
8
0
10
27.00180625
20
46.975375
30
0
0
VERTEX
8
0
10
27.193375
20
46.903359375
30
0
0
VERTEX
8
0
10
27.387534375
20
46.83864375
30
0
0
VERTEX
8
0
10
27.584003125000002
20
46.781325
30
0
0
VERTEX
8
0
10
27.782500000000002
20
46.731478125
30
0
0
VERTEX
8
0
10
27.982740625
20
46.689178125000005
30
0
0
VERTEX
8
0
10
28.1844375
20
46.6544875
30
0
0
VERTEX
8
0
10
28.387303125000003
20
46.62745625
30
0
0
VERTEX
8
0
10
28.591046875
20
46.60811875
30
0
0
VERTEX
8
0
10
28.795378125000003
20
46.596503125000005
30
0
0
VERTEX
8
0
10
29
20
46.592631250000004
30
0
0
VERTEX
8
0
10
29.204621875
20
46.596503125000005
30
0
0
VERTEX
8
0
10
29.408953125
20
46.60811875
30
0
0
VERTEX
8
0
10
29.612696875
20
46.62745625
30
0
0
VERTEX
8
0
10
29.815562500000002
20
46.6544875
30
0
0
VERTEX
8
0
10
30.017259375000002
20
46.689178125000005
30
0
0
VERTEX
8
0
10
30.2175
20
46.731478125
30
0
0
VERTEX
8
0
10
30.415996875
20
46.781325
30
0
0
VERTEX
8
0
10
30.612465625000002
20
46.83864375
30
0
0
VERTEX
8
0
10
30.806625
20
46.903359375
30
0
0
VERTEX
8
0
10
30.998193750000002
20
46.975375
30
0
0
VERTEX
8
0
10
31.186903125
20
47.054590625
30
0
0
VERTEX
8
0
10
31.372478125
20
47.140887500000005
30
0
0
VERTEX
8
0
10
31.55465625
20
47.23414375
30
0
0
VERTEX
8
0
10
31.733171875
20
47.33423125
30
0
0
VERTEX
8
0
10
31.907775
20
47.441
30
0
0
VERTEX
8
0
10
32.078209375
20
47.554300000000005
30
0
0
VERTEX
8
0
10
32.244237500000004
20
47.67396875
30
0
0
VERTEX
8
0
10
32.40561875
20
47.799834375
30
0
0
VERTEX
8
0
10
32.56211875
20
47.931715625
30
0
0
VERTEX
8
0
10
32.71351875
20
48.069425
30
0
0
VERTEX
8
0
10
32.859596875
20
48.212765625
30
0
0
VERTEX
8
0
10
33.000146875
20
48.361531250000006
30
0
0
VERTEX
8
0
10
33.134965625
20
48.515509375
30
0
0
VERTEX
8
0
10
33.2638625
20
48.674478125
30
0
0
VERTEX
8
0
10
33.386653125
20
48.838209375000005
30
0
0
VERTEX
8
0
10
33.50315625
20
49.006471875
30
0
0
VERTEX
8
0
10
33.613209375000004
20
49.179021875000004
30
0
0
VERTEX
8
0
10
33.71665625
20
49.3556125
30
0
0
VERTEX
8
0
10
33.813346875
20
49.53599375
30
0
0
VERTEX
8
0
10
33.903140625
20
49.7199
30
0
0
VERTEX
8
0
10
33.985909375
20
49.907075
30
0
0
VERTEX
8
0
10
34.0615375
20
50.09725
30
0
0
VERTEX
8
0
10
34.129915625
20
50.290150000000004
30
0
0
VERTEX
8
0
10
34.19094375
20
50.485496875
30
0
0
VERTEX
8
0
10
34.2445375
20
50.683015625
30
0
0
VERTEX
8
0
10
34.29061875
20
50.88241875
30
0
0
VERTEX
8
0
10
34.32911875
20
51.083425000000005
30
0
0
VERTEX
8
0
10
34.3599875
20
51.28574375
30
0
0
VERTEX
8
0
10
34.383178125
20
51.489084375000004
30
0
0
VERTEX
8
0
10
34.39865625
20
51.69315625
30
0
0
VERTEX
8
0
10
34.406400000000005
20
51.89766875
30
0
0
VERTEX
8
0
10
34.406400000000005
20
62.5936
30
0
0
SEQEND
0
POLYLINE
66
1
8
1_copper
10
0.0
20
0.0
30
0.0
70
1
0
VERTEX
8
0
10
29.51174375
20
42.378365625
30
0
0
VERTEX
8
0
10
29.206609375000003
20
42.369684375
30
0
0
VERTEX
8
0
10
28.901353125
20
42.36838125
30
0
0
VERTEX
8
0
10
28.596153125
20
42.374453125
30
0
0
VERTEX
8
0
10
28.291190625000002
20
42.387896875
30
0
0
VERTEX
8
0
10
27.986643750000002
20
42.40870625
30
0
0
VERTEX
8
0
10
27.682684375
20
42.43686875
30
0
0
VERTEX
8
0
10
27.379496875
20
42.47236875
30
0
0
VERTEX
8
0
10
27.07725625
20
42.515184375000004
30
0
0
VERTEX
8
0
10
26.7761375
20
42.565290625
30
0
0
VERTEX
8
0
10
26.47631875
20
42.622659375000005
30
0
0
VERTEX
8
0
10
26.177971875
20
42.687253125000005
30
0
0
VERTEX
8
0
10
25.881275000000002
20
42.759040625000004
30
0
0
VERTEX
8
0
10
25.586396875000002
20
42.837975
30
0
0
VERTEX
8
0
10
25.293512500000002
20
42.9240125
30
0
0
VERTEX
8
0
10
25.002793750000002
20
43.0171
30
0
0
VERTEX
8
0
10
24.714409375000002
20
43.1171875
30
0
0
VERTEX
8
0
10
24.428528125
20
43.2242125
30
0
0
VERTEX
8
0
10
24.145315625000002
20
43.3381125
30
0
0
VERTEX
8
0
10
23.8649375
20
43.458825000000004
30
0
0
VERTEX
8
0
10
23.587559375
20
43.586278125
30
0
0
VERTEX
8
0
10
23.31334375
20
43.720396875
30
0
0
VERTEX
8
0
10
23.04244375
20
43.8611
30
0
0
VERTEX
8
0
10
22.775028125000002
20
44.008309375
30
0
0
VERTEX
8
0
10
22.511243750000002
20
44.1619375
30
0
0
VERTEX
8
0
10
22.251250000000002
20
44.32189375
30
0
0
VERTEX
8
0
10
21.995196875
20
44.4880875
30
0
0
VERTEX
8
0
10
21.7432375
20
44.660418750000005
30
0
0
VERTEX
8
0
10
21.4955125
20
44.8387875
30
0
0
VERTEX
8
0
10
21.252171875000002
20
45.02309375
30
0
0
VERTEX
8
0
10
21.013353125000002
20
45.213221875
30
0
0
VERTEX
8
0
10
20.7792
20
45.409065625000004
30
0
0
VERTEX
8
0
10
20.549846875
20
45.6105125
30
0
0
VERTEX
8
0
10
20.32543125
20
45.817440625
30
0
0
VERTEX
8
0
10
20.106078125
20
46.029734375000004
30
0
0
VERTEX
8
0
10
19.891918750000002
20
46.247262500000005
30
0
0
VERTEX
8
0
10
19.68308125
20
46.469903125
30
0
0
VERTEX
8
0
10
19.479681250000002
20
46.697525
30
0
0
VERTEX
8
0
10
19.281840625
20
46.929996875
30
0
0
VERTEX
8
0
10
19.089678125000002
20
47.16718125
30
0
0
VERTEX
8
0
10
18.903303125
20
47.4089375
30
0
0
VERTEX
8
0
10
18.722821875
20
47.655128125000005
30
0
0
VERTEX
8
0
10
18.54834375
20
47.905609375000004
30
0
0
VERTEX
8
0
10
18.379965625
20
48.16023125
30
0
0
VERTEX
8
0
10
18.217793750000002
20
48.418846875
30
0
0
VERTEX
8
0
10
18.061915625
20
48.681306250000006
30
0
0
VERTEX
8
0
10
17.912428125
20
48.94745625
30
0
0
VERTEX
8
0
10
17.7694125
20
49.217140625
30
0
0
VERTEX
8
0
10
17.63295625
20
49.490203125
30
0
0
VERTEX
8
0
10
17.5031375
20
49.766484375000005
30
0
0
VERTEX
8
0
10
17.380034375
20
50.04581875
30
0
0
VERTEX
8
0
10
17.263715625
20
50.328046875000005
30
0
0
VERTEX
8
0
10
17.15425
20
50.613003125000006
30
0
0
VERTEX
8
0
10
17.051703125
20
50.900521875
30
0
0
VERTEX
8
0
10
16.956131250000002
20
51.190434375
30
0
0
VERTEX
8
0
10
16.86759375
20
51.482571875000005
30
0
0
VERTEX
8
0
10
16.78614375
20
51.776762500000004
30
0
0
VERTEX
8
0
10
16.711825
20
52.072837500000006
30
0
0
VERTEX
8
0
10
16.64468125
20
52.370618750000006
30
0
0
VERTEX
8
0
10
16.584753125000002
20
52.6699375
30
0
0
VERTEX
8
0
10
16.532075000000003
20
52.97061875
30
0
0
VERTEX
8
0
10
16.486678125
20
53.272481250000006
30
0
0
VERTEX
8
0
10
16.448587500000002
20
53.575356250000006
30
0
0
VERTEX
8
0
10
16.417828125
20
53.879059375000004
30
0
0
VERTEX
8
0
10
16.4064
20
54.01675
30
0
0
VERTEX
8
0
10
16.4064
20
83.7968
30
0
0
VERTEX
8
0
10
19
20
83.7968
30
0
0
VERTEX
8
0
10
19.035465625
20
83.79991875
30
0
42
0.9159168875285966
0
VERTEX
8
0
10
19
20
84.20320000000001
30
0
0
VERTEX
8
0
10
16.4064
20
84.20320000000001
30
0
0
VERTEX
8
0
10
16.4064
20
88.10233125
30
0
0
VERTEX
8
0
10
16.398656250000002
20
88.30684375
30
0
0
VERTEX
8
0
10
16.383178125
20
88.51091562500001
30
0
0
VERTEX
8
0
10
16.3599875
20
88.71425625
30
0
0
VERTEX
8
0
10
16.32911875
20
88.91657500000001
30
0
0
VERTEX
8
0
10
16.29061875
20
89.11758125
30
0
0
VERTEX
8
0
10
16.2445375
20
89.316984375
30
0
0
VERTEX
8
0
10
16.190943750000002
20
89.514503125
30
0
0
VERTEX
8
0
10
16.129915625000002
20
89.70985
30
0
0
VERTEX
8
0
10
16.0615375
20
89.90275
30
0
0
VERTEX
8
0
10
15.985909375
20
90.09292500000001
30
0
0
VERTEX
8
0
10
15.903140625
20
90.2801
30
0
0
VERTEX
8
0
10
15.813346875
20
90.46400625000001
30
0
0
VERTEX
8
0
10
15.716656250000002
20
90.64438750000001
30
0
0
VERTEX
8
0
10
15.613209375
20
90.82097812500001
30
0
0
VERTEX
8
0
10
15.50315625
20
90.993528125
30
0
0
VERTEX
8
0
10
15.386653125
20
91.16179062500001
30
0
0
VERTEX
8
0
10
15.2638625
20
91.325521875
30
0
0
VERTEX
8
0
10
15.134965625000001
20
91.484490625
30
0
0
VERTEX
8
0
10
15.000146875
20
91.63846875
30
0
0
VERTEX
8
0
10
14.859596875000001
20
91.78723437500001
30
0
0
VERTEX
8
0
10
14.71351875
20
91.930575
30
0
0
VERTEX
8
0
10
14.562118750000002
20
92.068284375
30
0
0
VERTEX
8
0
10
14.40561875
20
92.20016562500001
30
0
0
VERTEX
8
0
10
14.2442375
20
92.32603125
30
0
0
VERTEX
8
0
10
14.078209375
20
92.4457
30
0
0
VERTEX
8
0
10
13.907775
20
92.559
30
0
0
VERTEX
8
0
10
13.733171875
20
92.66576875
30
0
0
VERTEX
8
0
10
13.55465625
20
92.76585625
30
0
0
VERTEX
8
0
10
13.372478125
20
92.85911250000001
30
0
0
VERTEX
8
0
10
13.186903125
20
92.94540937500001
30
0
0
VERTEX
8
0
10
12.99819375
20
93.024625
30
0
0
VERTEX
8
0
10
12.806625
20
93.096640625
30
0
0
VERTEX
8
0
10
12.612465625
20
93.16135625000001
30
0
0
VERTEX
8
0
10
12.415996875000001
20
93.218675
30
0
0
VERTEX
8
0
10
12.217500000000001
20
93.268521875
30
0
0
VERTEX
8
0
10
12.017259375
20
93.310821875
30
0
0
VERTEX
8
0
10
11.8155625
20
93.3455125
30
0
0
VERTEX
8
0
10
11.612696875000001
20
93.37254375
30
0
0
VERTEX
8
0
10
11.408953125
20
93.39188125000001
30
0
0
VERTEX
8
0
10
11.204621875
20
93.403496875
30
0
0
VERTEX
8
0
10
11
20
93.40736875
30
0
0
VERTEX
8
0
10
10.795378125000001
20
93.403496875
30
0
0
VERTEX
8
0
10
10.591046875
20
93.39188125000001
30
0
0
VERTEX
8
0
10
10.387303125
20
93.37254375
30
0
0
VERTEX
8
0
10
10.184437500000001
20
93.3455125
30
0
0
VERTEX
8
0
10
9.982740625
20
93.310821875
30
0
0
VERTEX
8
0
10
9.7825
20
93.268521875
30
0
0
VERTEX
8
0
10
9.584003125
20
93.218675
30
0
0
VERTEX
8
0
10
9.387534375000001
20
93.16135625000001
30
0
0
VERTEX
8
0
10
9.193375
20
93.096640625
30
0
0
VERTEX
8
0
10
9.00180625
20
93.024625
30
0
0
VERTEX
8
0
10
8.813096875000001
20
92.94540937500001
30
0
0
VERTEX
8
0
10
8.627521875000001
20
92.85911250000001
30
0
0
VERTEX
8
0
10
8.445343750000001
20
92.76585625
30
0
0
VERTEX
8
0
10
8.266828125
20
92.66576875
30
0
0
VERTEX
8
0
10
8.092225000000001
20
92.559
30
0
0
VERTEX
8
0
10
7.921790625000001
20
92.4457
30
0
0
VERTEX
8
0
10
7.7557625
20
92.32603125
30
0
0
VERTEX
8
0
10
7.5943812500000005
20
92.20016562500001
30
0
0
VERTEX
8
0
10
7.43788125
20
92.068284375
30
0
0
VERTEX
8
0
10
7.2864812500000005
20
91.930575
30
0
0
VERTEX
8
0
10
7.140403125000001
20
91.78723437500001
30
0
0
VERTEX
8
0
10
6.9998531250000005
20
91.63846875
30
0
0
VERTEX
8
0
10
6.8650343750000005
20
91.484490625
30
0
0
VERTEX
8
0
10
6.7361375
20
91.325521875
30
0
0
VERTEX
8
0
10
6.613346875
20
91.16179062500001
30
0
0
VERTEX
8
0
10
6.49684375
20
90.993528125
30
0
0
VERTEX
8
0
10
6.386790625000001
20
90.82097812500001
30
0
0
VERTEX
8
0
10
6.28334375
20
90.64438750000001
30
0
0
VERTEX
8
0
10
6.186653125
20
90.46400625000001
30
0
0
VERTEX
8
0
10
6.096859375
20
90.2801
30
0
0
VERTEX
8
0
10
6.014090625000001
20
90.09292500000001
30
0
0
VERTEX
8
0
10
5.9384625
20
89.90275
30
0
0
VERTEX
8
0
10
5.870084375
20
89.70985
30
0
0
VERTEX
8
0
10
5.80905625
20
89.514503125
30
0
0
VERTEX
8
0
10
5.7554625
20
89.316984375
30
0
0
VERTEX
8
0
10
5.70938125
20
89.11758125
30
0
0
VERTEX
8
0
10
5.67088125
20
88.91657500000001
30
0
0
VERTEX
8
0
10
5.6400125
20
88.71425625
30
0
0
VERTEX
8
0
10
5.616821875
20
88.51091562500001
30
0
0
VERTEX
8
0
10
5.60134375
20
88.30684375
30
0
0
VERTEX
8
0
10
5.5936
20
88.10233125
30
0
0
VERTEX
8
0
10
5.5936
20
22
30
0
0
VERTEX
8
0
10
5.593606250000001
20
21.999918750000003
30
0
0
VERTEX
8
0
10
5.5936
20
21.999834375000002
30
0
0
VERTEX
8
0
10
5.595065625
20
21.97640625
30
0
0
VERTEX
8
0
10
5.596721875
20
21.949721875
30
0
0
VERTEX
8
0
10
5.596740625000001
20
21.949628125
30
0
0
VERTEX
8
0
10
5.59674375
20
21.949559375
30
0
0
VERTEX
8
0
10
5.601084375
20
21.926550000000002
30
0
0
VERTEX
8
0
10
5.606040625
20
21.90021875
30
0
0
VERTEX
8
0
10
5.606065625
20
21.90014375
30
0
0
VERTEX
8
0
10
5.60608125
20
21.900056250000002
30
0
42
0.03091435969764626
0
VERTEX
8
0
10
5.621409375000001
20
21.852246875000002
30
0
0
VERTEX
8
0
10
5.62145
20
21.852159375
30
0
0
VERTEX
8
0
10
5.621471875
20
21.852090625000002
30
0
42
0.030915842147105518
0
VERTEX
8
0
10
5.6426
20
21.80654375
30
0
0
VERTEX
8
0
10
5.6426375
20
21.80648125
30
0
0
VERTEX
8
0
10
5.642678125000001
20
21.806396875
30
0
42
0.030914644350520548
0
VERTEX
8
0
10
5.669278125
20
21.763815625
30
0
0
VERTEX
8
0
10
5.669334375
20
21.763746875000002
30
0
0
VERTEX
8
0
10
5.6693750000000005
20
21.76368125
30
0
0
VERTEX
8
0
10
5.669671875000001
20
21.76333125
30
0
0
VERTEX
8
0
10
5.7010375
20
21.724715625
30
0
0
VERTEX
8
0
10
5.708271875
20
21.717775
30
0
0
VERTEX
8
0
10
5.71263125
20
21.71263125
30
0
0
VERTEX
8
0
10
21.71263125
20
5.71263125
30
0
0
VERTEX
8
0
10
21.71270625
20
5.712565625
30
0
0
VERTEX
8
0
10
21.71275
20
5.712515625
30
0
0
VERTEX
8
0
10
21.727996875000002
20
5.6990625
30
0
0
VERTEX
8
0
10
21.750390625
20
5.6792875
30
0
0
VERTEX
8
0
10
21.75046875
20
5.679234375
30
0
0
VERTEX
8
0
10
21.750521875
20
5.6791875
30
0
0
VERTEX
8
0
10
21.768315625
20
5.66704375
30
0
0
VERTEX
8
0
10
21.791984375000002
20
5.650871875
30
0
0
VERTEX
8
0
10
21.792065625
20
5.65083125
30
0
0
VERTEX
8
0
10
21.792128125
20
5.6507875
30
0
0
VERTEX
8
0
10
21.811868750000002
20
5.6406375
30
0
0
VERTEX
8
0
10
21.836775
20
5.62781875
30
0
0
VERTEX
8
0
10
21.836862500000002
20
5.6277875
30
0
0
VERTEX
8
0
10
21.836928125
20
5.627753125
30
0
0
VERTEX
8
0
10
21.858296875
20
5.6199312500000005
30
0
0
VERTEX
8
0
10
21.884071875
20
5.610484375
30
0
42
0.0001021926506015109
0
VERTEX
8
0
10
21.884231250000003
20
5.610437500000001
30
0
0
VERTEX
8
0
10
21.90599375
20
5.605415625
30
0
0
VERTEX
8
0
10
21.933153125
20
5.599134375
30
0
0
VERTEX
8
0
10
21.93325
20
5.599125
30
0
0
VERTEX
8
0
10
21.933315625000002
20
5.599109375
30
0
0
VERTEX
8
0
10
21.93370625
20
5.599078125
30
0
0
VERTEX
8
0
10
21.983259375
20
5.59394375
30
0
0
VERTEX
8
0
10
21.993303125
20
5.594153125
30
0
0
VERTEX
8
0
10
22
20
5.5936
30
0
0
VERTEX
8
0
10
60
20
5.5936
30
0
0
VERTEX
8
0
10
60.00008125
20
5.593606250000001
30
0
0
VERTEX
8
0
10
60.000165625
20
5.5936
30
0
0
VERTEX
8
0
10
60.02359375
20
5.595065625
30
0
0
VERTEX
8
0
10
60.050278125000006
20
5.596721875
30
0
0
VERTEX
8
0
10
60.050371875
20
5.596740625000001
30
0
0
VERTEX
8
0
10
60.050440625
20
5.59674375
30
0
0
VERTEX
8
0
10
60.07345
20
5.601084375
30
0
0
VERTEX
8
0
10
60.09978125
20
5.606040625
30
0
0
VERTEX
8
0
10
60.09985625
20
5.606065625
30
0
0
VERTEX
8
0
10
60.09994375
20
5.60608125
30
0
42
0.03091435969764626
0
VERTEX
8
0
10
60.147753125
20
5.621409375000001
30
0
0
VERTEX
8
0
10
60.147840625
20
5.62145
30
0
0
VERTEX
8
0
10
60.147909375000005
20
5.621471875
30
0
42
0.030915842147105518
0
VERTEX
8
0
10
60.193456250000004
20
5.6426
30
0
0
VERTEX
8
0
10
60.19351875
20
5.6426375
30
0
0
VERTEX
8
0
10
60.193603125
20
5.642678125000001
30
0
42
0.030914644350520548
0
VERTEX
8
0
10
60.236184375
20
5.669278125
30
0
0
VERTEX
8
0
10
60.236253125000005
20
5.669334375
30
0
0
VERTEX
8
0
10
60.23631875
20
5.6693750000000005
30
0
0
VERTEX
8
0
10
60.23666875
20
5.669671875000001
30
0
0
VERTEX
8
0
10
60.275284375000005
20
5.7010375
30
0
0
VERTEX
8
0
10
60.282225000000004
20
5.708271875
30
0
0
VERTEX
8
0
10
60.287368750000006
20
5.71263125
30
0
0
VERTEX
8
0
10
68.28736875
20
13.712631250000001
30
0
0
VERTEX
8
0
10
68.3207125
20
13.750390625000001
30
0
42
0.8650768872290181
0
VERTEX
8
0
10
67.76368125
20
14.330625000000001
30
0
0
VERTEX
8
0
10
67.71263125
20
14.28736875
30
0
0
VERTEX
8
0
10
59.8316625
20
6.4064000000000005
30
0
0
VERTEX
8
0
10
22.1683375
20
6.4064000000000005
30
0
0
VERTEX
8
0
10
6.4064000000000005
20
22.1683375
30
0
0
VERTEX
8
0
10
6.4064000000000005
20
88
30
0
0
VERTEX
8
0
10
6.407221875
20
88.08693125
30
0
0
VERTEX
8
0
10
6.413803125
20
88.260665625
30
0
0
VERTEX
8
0
10
6.426950000000001
20
88.434028125
30
0
0
VERTEX
8
0
10
6.44665
20
88.60676562500001
30
0
0
VERTEX
8
0
10
6.472871875
20
88.7786375
30
0
0
VERTEX
8
0
10
6.5055812500000005
20
88.94939375
30
0
0
VERTEX
8
0
10
6.544725000000001
20
89.11878750000001
30
0
0
VERTEX
8
0
10
6.590253125
20
89.28658125
30
0
0
VERTEX
8
0
10
6.642096875
20
89.45253125
30
0
0
VERTEX
8
0
10
6.700184375
20
89.6164
30
0
0
VERTEX
8
0
10
6.76443125
20
89.77795312500001
30
0
0
VERTEX
8
0
10
6.834746875
20
89.9369625
30
0
0
VERTEX
8
0
10
6.911025
20
90.09319375
30
0
0
VERTEX
8
0
10
6.9931656250000005
20
90.246425
30
0
0
VERTEX
8
0
10
7.08104375
20
90.39644062500001
30
0
0
VERTEX
8
0
10
7.174534375
20
90.543025
30
0
0
VERTEX
8
0
10
7.2735062500000005
20
90.68596562500001
30
0
0
VERTEX
8
0
10
7.377815625
20
90.82505625
30
0
0
VERTEX
8
0
10
7.487315625
20
90.960103125
30
0
0
VERTEX
8
0
10
7.601846875000001
20
91.09090625
30
0
0
VERTEX
8
0
10
7.72124375
20
91.217284375
30
0
0
VERTEX
8
0
10
7.845340625
20
91.339053125
30
0
0
VERTEX
8
0
10
7.973953125
20
91.45603750000001
30
0
0
VERTEX
8
0
10
8.106903125
20
91.568071875
30
0
0
VERTEX
8
0
10
8.243996875
20
91.674996875
30
0
0
VERTEX
8
0
10
8.385037500000001
20
91.77665625
30
0
0
VERTEX
8
0
10
8.529825
20
91.87290625
30
0
0
VERTEX
8
0
10
8.67815
20
91.96360625
30
0
0
VERTEX
8
0
10
8.829803125
20
92.04862812500001
30
0
0
VERTEX
8
0
10
8.984562500000001
20
92.127853125
30
0
0
VERTEX
8
0
10
9.142209375
20
92.20116250000001
30
0
0
VERTEX
8
0
10
9.30251875
20
92.26845625
30
0
0
VERTEX
8
0
10
9.465259375
20
92.329634375
30
0
0
VERTEX
8
0
10
9.630196875000001
20
92.38460937500001
30
0
0
VERTEX
8
0
10
9.7971
20
92.43330625
30
0
0
VERTEX
8
0
10
9.965725
20
92.47565
30
0
0
VERTEX
8
0
10
10.135828125
20
92.51158125
30
0
0
VERTEX
8
0
10
10.307175
20
92.541053125
30
0
0
VERTEX
8
0
10
10.479509375000001
20
92.56401562500001
30
0
0
VERTEX
8
0
10
10.652590625
20
92.58044375
30
0
0
VERTEX
8
0
10
10.826171875
20
92.590309375
30
0
0
VERTEX
8
0
10
11
20
92.59360000000001
30
0
0
VERTEX
8
0
10
11.173828125
20
92.590309375
30
0
0
VERTEX
8
0
10
11.347409375
20
92.58044375
30
0
0
VERTEX
8
0
10
11.520490625
20
92.56401562500001
30
0
0
VERTEX
8
0
10
11.692825000000001
20
92.541053125
30
0
0
VERTEX
8
0
10
11.864171875
20
92.51158125
30
0
0
VERTEX
8
0
10
12.034275000000001
20
92.47565
30
0
0
VERTEX
8
0
10
12.202900000000001
20
92.43330625
30
0
0
VERTEX
8
0
10
12.369803125
20
92.38460937500001
30
0
0
VERTEX
8
0
10
12.534740625000001
20
92.329634375
30
0
0
VERTEX
8
0
10
12.697481250000001
20
92.26845625
30
0
0
VERTEX
8
0
10
12.857790625
20
92.20116250000001
30
0
0
VERTEX
8
0
10
13.0154375
20
92.127853125
30
0
0
VERTEX
8
0
10
13.170196875
20
92.04862812500001
30
0
0
VERTEX
8
0
10
13.321850000000001
20
91.96360625
30
0
0
VERTEX
8
0
10
13.470175000000001
20
91.87290625
30
0
0
VERTEX
8
0
10
13.6149625
20
91.77665625
30
0
0
VERTEX
8
0
10
13.756003125000001
20
91.674996875
30
0
0
VERTEX
8
0
10
13.893096875000001
20
91.568071875
30
0
0
VERTEX
8
0
10
14.026046875
20
91.45603750000001
30
0
0
VERTEX
8
0
10
14.154659375000001
20
91.339053125
30
0
0
VERTEX
8
0
10
14.27875625
20
91.217284375
30
0
0
VERTEX
8
0
10
14.398153125
20
91.09090625
30
0
0
VERTEX
8
0
10
14.512684375000001
20
90.960103125
30
0
0
VERTEX
8
0
10
14.622184375000002
20
90.82505625
30
0
0
VERTEX
8
0
10
14.726493750000001
20
90.68596562500001
30
0
0
VERTEX
8
0
10
14.825465625000001
20
90.543025
30
0
0
VERTEX
8
0
10
14.91895625
20
90.39644062500001
30
0
0
VERTEX
8
0
10
15.006834375
20
90.246425
30
0
0
VERTEX
8
0
10
15.088975000000001
20
90.09319375
30
0
0
VERTEX
8
0
10
15.165253125000001
20
89.9369625
30
0
0
VERTEX
8
0
10
15.23556875
20
89.77795312500001
30
0
0
VERTEX
8
0
10
15.299815625
20
89.6164
30
0
0
VERTEX
8
0
10
15.357903125
20
89.45253125
30
0
0
VERTEX
8
0
10
15.409746875000002
20
89.28658125
30
0
0
VERTEX
8
0
10
15.455275
20
89.11878750000001
30
0
0
VERTEX
8
0
10
15.494418750000001
20
88.94939375
30
0
0
VERTEX
8
0
10
15.527128125
20
88.7786375
30
0
0
VERTEX
8
0
10
15.55335
20
88.60676562500001
30
0
0
VERTEX
8
0
10
15.57305
20
88.434028125
30
0
0
VERTEX
8
0
10
15.586196875
20
88.260665625
30
0
0
VERTEX
8
0
10
15.592778125
20
88.08693125
30
0
0
VERTEX
8
0
10
15.5936
20
88
30
0
0
VERTEX
8
0
10
15.5936
20
54.01100625
30
0
0
VERTEX
8
0
10
15.592753125000002
20
53.9953875
30
0
0
VERTEX
8
0
10
15.594796875
20
53.96883125
30
0
0
VERTEX
8
0
10
15.60725625
20
53.806846875000005
30
0
0
VERTEX
8
0
10
15.64
20
53.483575
30
0
0
VERTEX
8
0
10
15.68054375
20
53.161190625
30
0
0
VERTEX
8
0
10
15.7288625
20
52.839881250000005
30
0
0
VERTEX
8
0
10
15.784934375
20
52.51983125
30
0
0
VERTEX
8
0
10
15.848725
20
52.201228125
30
0
0
VERTEX
8
0
10
15.920193750000001
20
51.884262500000006
30
0
0
VERTEX
8
0
10
15.999300000000002
20
51.569115625
30
0
0
VERTEX
8
0
10
16.086000000000002
20
51.255971875
30
0
0
VERTEX
8
0
10
16.180240625
20
50.945015625
30
0
0
VERTEX
8
0
10
16.281965625
20
50.636425
30
0
0
VERTEX
8
0
10
16.39111875
20
50.330384375
30
0
0
VERTEX
8
0
10
16.5076375
20
50.027068750000005
30
0
0
VERTEX
8
0
10
16.63145
20
49.726659375000004
30
0
0
VERTEX
8
0
10
16.762484375
20
49.429328125000005
30
0
0
VERTEX
8
0
10
16.900665625000002
20
49.13525
30
0
0
VERTEX
8
0
10
17.0459125
20
48.844596875
30
0
0
VERTEX
8
0
10
17.198140625
20
48.557540625
30
0
0
VERTEX
8
0
10
17.3572625
20
48.274243750000004
30
0
0
VERTEX
8
0
10
17.52318125
20
47.994875
30
0
0
VERTEX
8
0
10
17.695800000000002
20
47.719596875
30
0
0
VERTEX
8
0
10
17.875025
20
47.448571875
30
0
0
VERTEX
8
0
10
18.06074375
20
47.18195625
30
0
0
VERTEX
8
0
10
18.252850000000002
20
46.919906250000004
30
0
0
VERTEX
8
0
10
18.451234375000002
20
46.662571875000005
30
0
0
VERTEX
8
0
10
18.655778125
20
46.410109375000005
30
0
0
VERTEX
8
0
10
18.8663625
20
46.1626625
30
0
0
VERTEX
8
0
10
19.0828625
20
45.920375
30
0
0
VERTEX
8
0
10
19.30515625
20
45.683390625
30
0
0
VERTEX
8
0
10
19.5331125
20
45.45185
30
0
0
VERTEX
8
0
10
19.766593750000002
20
45.22588125
30
0
0
VERTEX
8
0
10
20.005471875
20
45.005621875
30
0
0
VERTEX
8
0
10
20.249596875
20
44.791196875000004
30
0
0
VERTEX
8
0
10
20.4988375
20
44.5827375
30
0
0
VERTEX
8
0
10
20.7530375
20
44.380359375000005
30
0
0
VERTEX
8
0
10
21.01205625
20
44.18418125
30
0
0
VERTEX
8
0
10
21.275740625
20
43.994321875000004
30
0
0
VERTEX
8
0
10
21.543934375000003
20
43.8108875
30
0
0
VERTEX
8
0
10
21.816481250000002
20
43.6339875
30
0
0
VERTEX
8
0
10
22.093225
20
43.463725000000004
30
0
0
VERTEX
8
0
10
22.374000000000002
20
43.300200000000004
30
0
0
VERTEX
8
0
10
22.658646875000002
20
43.143509375
30
0
0
VERTEX
8
0
10
22.94699375
20
42.9937375
30
0
0
VERTEX
8
0
10
23.238878125
20
42.850981250000004
30
0
0
VERTEX
8
0
10
23.534128125000002
20
42.71531875
30
0
0
VERTEX
8
0
10
23.832565625
20
42.586828125000004
30
0
0
VERTEX
8
0
10
24.134025
20
42.465590625000004
30
0
0
VERTEX
8
0
10
24.438321875
20
42.35166875
30
0
0
VERTEX
8
0
10
24.7452875
20
42.245134375
30
0
0
VERTEX
8
0
10
25.054734375000002
20
42.14605
30
0
0
VERTEX
8
0
10
25.366484375000002
20
42.054468750000005
30
0
0
VERTEX
8
0
10
25.680359375000002
20
41.97045
30
0
0
VERTEX
8
0
10
25.996171875
20
41.894040625
30
0
0
VERTEX
8
0
10
26.313737500000002
20
41.825284375
30
0
0
VERTEX
8
0
10
26.632871875000003
20
41.764218750000005
30
0
0
VERTEX
8
0
10
26.953390625
20
41.710884375
30
0
0
VERTEX
8
0
10
27.275100000000002
20
41.6653125
30
0
0
VERTEX
8
0
10
27.597821875
20
41.627525
30
0
0
VERTEX
8
0
10
27.921359375
20
41.597550000000005
30
0
0
VERTEX
8
0
10
28.245528125
20
41.575396875
30
0
0
VERTEX
8
0
10
28.5701375
20
41.5610875
30
0
0
VERTEX
8
0
10
28.894996875
20
41.554625
30
0
0
VERTEX
8
0
10
29.21991875
20
41.5560125
30
0
0
VERTEX
8
0
10
29.544712500000003
20
41.565253125000005
30
0
0
VERTEX
8
0
10
29.869184375
20
41.5823375
30
0
0
VERTEX
8
0
10
30.015609375
20
41.5936
30
0
0
VERTEX
8
0
10
48
20
41.5936
30
0
0
VERTEX
8
0
10
48.050278125000006
20
41.596721875
30
0
42
0.8650765546717226
0
VERTEX
8
0
10
48.066684375
20
42.400890625
30
0
0
VERTEX
8
0
10
48
20
42.406400000000005
30
0
0
VERTEX
8
0
10
30.01100625
20
42.406400000000005
30
0
0
VERTEX
8
0
10
29.995387500000003
20
42.407246875000006
30
0
0
VERTEX
8
0
10
29.96883125
20
42.405203125
30
0
0
VERTEX
8
0
10
29.816581250000002
20
42.394415625
30
0
0
SEQEND
0
POLYLINE
66
1
8
1_copper
10
0.0
20
0.0
30
0.0
70
1
0
VERTEX
8
0
10
24.070671875000002
20
83.599790625
30
0
0
VERTEX
8
0
10
24.119640625000002
20
83.611609375
30
0
0
VERTEX
8
0
10
24.181746875
20
83.63650625000001
30
0
0
VERTEX
8
0
10
39.5936
20
91.34243437500001
30
0
0
VERTEX
8
0
10
39.5936
20
88.20320000000001
30
0
0
VERTEX
8
0
10
38
20
88.20320000000001
30
0
0
VERTEX
8
0
10
37.964534375
20
88.20008125000001
30
0
42
0.9159168875285966
0
VERTEX
8
0
10
38
20
87.7968
30
0
0
VERTEX
8
0
10
39.648684375
20
87.7968
30
0
0
VERTEX
8
0
10
39.654956250000005
20
87.786753125
30
0
0
VERTEX
8
0
10
39.667228125
20
87.766709375
30
0
42
0.28654787934083337
0
VERTEX
8
0
10
40.063509375
20
87.59859375
30
0
0
VERTEX
8
0
10
40.06496875
20
87.59895
30
0
0
VERTEX
8
0
10
40.067012500000004
20
87.5991625
30
0
0
VERTEX
8
0
10
40.1160875
20
87.61053125000001
30
0
0
VERTEX
8
0
10
40.123346875
20
87.61319375000001
30
0
0
VERTEX
8
0
10
40.128515625
20
87.61445625
30
0
0
VERTEX
8
0
10
52.128515625000006
20
91.61445625
30
0
0
VERTEX
8
0
10
52.175225000000005
20
91.63331562500001
30
0
42
0.86507634225828
0
VERTEX
8
0
10
51.936490625000005
20
92.40140625000001
30
0
0
VERTEX
8
0
10
51.871484375
20
92.38554375000001
30
0
0
VERTEX
8
0
10
40.406400000000005
20
88.56385
30
0
0
VERTEX
8
0
10
40.406400000000005
20
92
30
0
0
VERTEX
8
0
10
40.406284375
20
92.00184375
30
0
0
VERTEX
8
0
10
40.406384375
20
92.0037125
30
0
42
0.501841686475745
0
VERTEX
8
0
10
39.880359375000005
20
92.388390625
30
0
0
VERTEX
8
0
10
39.873709375000004
20
92.38572500000001
30
0
0
VERTEX
8
0
10
39.836621875
20
92.372115625
30
0
0
VERTEX
8
0
10
39.825618750000004
20
92.36644687500001
30
0
0
VERTEX
8
0
10
39.818253125000005
20
92.36349375
30
0
0
VERTEX
8
0
10
23.818253125000002
20
84.36349375
30
0
0
VERTEX
8
0
10
23.774678125
20
84.33821875000001
30
0
42
0.09329252394927282
0
VERTEX
8
0
10
23.667134375
20
84.233153125
30
0
0
VERTEX
8
0
10
23.648809375000003
20
84.20320000000001
30
0
0
VERTEX
8
0
10
21
20
84.20320000000001
30
0
0
VERTEX
8
0
10
20.964534375
20
84.20008125000001
30
0
42
0.9159168875285966
0
VERTEX
8
0
10
21
20
83.7968
30
0
0
VERTEX
8
0
10
23.648515625
20
83.7968
30
0
0
VERTEX
8
0
10
23.67145
20
83.76080312500001
30
0
42
0.2532787822699877
0
VERTEX
8
0
10
24.020615625
20
83.594121875
30
0
0
SEQEND
0
POLYLINE
66
1
8
1_copper
10
0.0
20
0.0
30
0.0
70
1
0
VERTEX
8
0
10
54.058690625000004
20
16.1749
30
0
0
VERTEX
8
0
10
53.972565625
20
16.36519375
30
0
0
VERTEX
8
0
10
53.879284375000005
20
16.552084375
30
0
0
VERTEX
8
0
10
53.77898125
20
16.735303125
30
0
0
VERTEX
8
0
10
53.671803125000004
20
16.914584375
30
0
0
VERTEX
8
0
10
53.557903125
20
17.089671875
30
0
0
VERTEX
8
0
10
53.437440625
20
17.260315625
30
0
0
VERTEX
8
0
10
53.310596875
20
17.426265625
30
0
0
VERTEX
8
0
10
53.177550000000004
20
17.587287500000002
30
0
0
VERTEX
8
0
10
53.038490625
20
17.743146875
30
0
0
VERTEX
8
0
10
52.89361875
20
17.89361875
30
0
0
VERTEX
8
0
10
52.743146875
20
18.038490625
30
0
0
VERTEX
8
0
10
52.5872875
20
18.17755
30
0
0
VERTEX
8
0
10
52.426265625
20
18.310596875
30
0
0
VERTEX
8
0
10
52.260315625000004
20
18.437440625
30
0
0
VERTEX
8
0
10
52.089671875
20
18.557903125
30
0
0
VERTEX
8
0
10
51.914584375000004
20
18.671803125
30
0
0
VERTEX
8
0
10
51.735303125
20
18.77898125
30
0
0
VERTEX
8
0
10
51.552084375
20
18.879284375
30
0
0
VERTEX
8
0
10
51.36519375
20
18.972565625
30
0
0
VERTEX
8
0
10
51.1749
20
19.058690625
30
0
0
VERTEX
8
0
10
50.981475
20
19.1375375
30
0
0
VERTEX
8
0
10
50.7852
20
19.20899375
30
0
0
VERTEX
8
0
10
50.58635625
20
19.272953125
30
0
0
VERTEX
8
0
10
50.385231250000004
20
19.329321875
30
0
0
VERTEX
8
0
10
50.1821125
20
19.378025
30
0
0
VERTEX
8
0
10
50.079703125
20
19.398509375
30
0
0
VERTEX
8
0
10
50.05358125
20
19.40373125
30
0
0
VERTEX
8
0
10
50.000425
20
19.407271875
30
0
0
VERTEX
8
0
10
49.986903125000005
20
19.4064
30
0
0
VERTEX
8
0
10
40.406400000000005
20
19.4064
30
0
0
VERTEX
8
0
10
40.406400000000005
20
25
30
0
0
VERTEX
8
0
10
40.403278125
20
25.050278125000002
30
0
42
0.8650765546717226
0
VERTEX
8
0
10
39.599109375000005
20
25.066684375
30
0
0
VERTEX
8
0
10
39.5936
20
25
30
0
0
VERTEX
8
0
10
39.5936
20
19.4064
30
0
0
VERTEX
8
0
10
30.013096875000002
20
19.4064
30
0
0
VERTEX
8
0
10
29.999575
20
19.407271875
30
0
0
VERTEX
8
0
10
29.946418750000003
20
19.40373125
30
0
0
VERTEX
8
0
10
29.920296875000002
20
19.398509375
30
0
0
VERTEX
8
0
10
29.8178875
20
19.378025
30
0
0
VERTEX
8
0
10
29.614768750000003
20
19.329321875
30
0
0
VERTEX
8
0
10
29.413643750000002
20
19.272953125
30
0
0
VERTEX
8
0
10
29.2148
20
19.20899375
30
0
0
VERTEX
8
0
10
29.018525
20
19.1375375
30
0
0
VERTEX
8
0
10
28.825100000000003
20
19.058690625
30
0
0
VERTEX
8
0
10
28.63480625
20
18.972565625
30
0
0
VERTEX
8
0
10
28.447915625
20
18.879284375
30
0
0
VERTEX
8
0
10
28.264696875000002
20
18.77898125
30
0
0
VERTEX
8
0
10
28.085415625000003
20
18.671803125
30
0
0
VERTEX
8
0
10
27.910328125000003
20
18.557903125
30
0
0
VERTEX
8
0
10
27.739684375000003
20
18.437440625
30
0
0
VERTEX
8
0
10
27.573734375
20
18.310596875
30
0
0
VERTEX
8
0
10
27.4127125
20
18.17755
30
0
0
VERTEX
8
0
10
27.256853125000003
20
18.038490625
30
0
0
VERTEX
8
0
10
27.106381250000002
20
17.89361875
30
0
0
VERTEX
8
0
10
26.961509375000002
20
17.743146875
30
0
0
VERTEX
8
0
10
26.82245
20
17.587287500000002
30
0
0
VERTEX
8
0
10
26.689403125000002
20
17.426265625
30
0
0
VERTEX
8
0
10
26.562559375000003
20
17.260315625
30
0
0
VERTEX
8
0
10
26.442096875
20
17.089671875
30
0
0
VERTEX
8
0
10
26.328196875
20
16.914584375
30
0
0
VERTEX
8
0
10
26.221018750000002
20
16.735303125
30
0
0
VERTEX
8
0
10
26.120715625000003
20
16.552084375
30
0
0
VERTEX
8
0
10
26.027434375000002
20
16.36519375
30
0
0
VERTEX
8
0
10
25.941309375000003
20
16.1749
30
0
0
VERTEX
8
0
10
25.8624625
20
15.981475000000001
30
0
0
VERTEX
8
0
10
25.791006250000002
20
15.785200000000001
30
0
0
VERTEX
8
0
10
25.727046875000003
20
15.586356250000001
30
0
0
VERTEX
8
0
10
25.670678125000002
20
15.38523125
30
0
0
VERTEX
8
0
10
25.621975000000003
20
15.1821125
30
0
0
VERTEX
8
0
10
25.601490625
20
15.079703125
30
0
0
VERTEX
8
0
10
25.59626875
20
15.05358125
30
0
0
VERTEX
8
0
10
25.592728125
20
15.000425
30
0
0
VERTEX
8
0
10
25.593600000000002
20
14.986903125000001
30
0
0
VERTEX
8
0
10
25.593600000000002
20
11.406400000000001
30
0
0
VERTEX
8
0
10
22
20
11.406400000000001
30
0
0
VERTEX
8
0
10
21.99154375
20
11.405875
30
0
0
VERTEX
8
0
10
21.983090625000003
20
11.406046875000001
30
0
42
0.3549595483564714
0
VERTEX
8
0
10
21.599109375
20
11.066684375000001
30
0
0
VERTEX
8
0
10
21.598184375000002
20
11.055496875000001
30
0
42
0.027416808266298623
0
VERTEX
8
0
10
21.594525
20
11.011196875000001
30
0
0
VERTEX
8
0
10
21.593600000000002
20
11
30
0
0
VERTEX
8
0
10
21.593600000000002
20
9
30
0
0
VERTEX
8
0
10
21.594125000000002
20
8.99154375
30
0
0
VERTEX
8
0
10
21.593953125000002
20
8.983090625
30
0
42
0.3549595483564714
0
VERTEX
8
0
10
21.933315625000002
20
8.599109375000001
30
0
0
VERTEX
8
0
10
21.944503125
20
8.598184375
30
0
42
0.027416808266298623
0
VERTEX
8
0
10
21.988803125
20
8.594525
30
0
0
VERTEX
8
0
10
22
20
8.5936
30
0
0
VERTEX
8
0
10
58
20
8.5936
30
0
0
VERTEX
8
0
10
58.00845625
20
8.594125
30
0
0
VERTEX
8
0
10
58.016909375000004
20
8.593953125
30
0
42
0.3549595483564714
0
VERTEX
8
0
10
58.400890625
20
8.933315625
30
0
0
VERTEX
8
0
10
58.401815625000005
20
8.944503125
30
0
42
0.027416808266298623
0
VERTEX
8
0
10
58.405475
20
8.988803125
30
0
0
VERTEX
8
0
10
58.406400000000005
20
9
30
0
0
VERTEX
8
0
10
58.406400000000005
20
11
30
0
0
VERTEX
8
0
10
58.405875
20
11.00845625
30
0
0
VERTEX
8
0
10
58.406046875
20
11.016909375000001
30
0
42
0.05165627737696468
0
VERTEX
8
0
10
58.393959375
20
11.099781250000001
30
0
0
VERTEX
8
0
10
58.392306250000004
20
11.1049375
30
0
0
VERTEX
8
0
10
63.08416875
20
15.796800000000001
30
0
0
VERTEX
8
0
10
69.648684375
20
15.796800000000001
30
0
0
VERTEX
8
0
10
69.669278125
20
15.763815625000001
30
0
42
0.6683263594904804
0
VERTEX
8
0
10
70.400890625
20
15.933315625
30
0
0
VERTEX
8
0
10
70.4064
20
16
30
0
0
VERTEX
8
0
10
70.4064
20
92.10233125
30
0
0
VERTEX
8
0
10
70.39865625
20
92.30684375
30
0
0
VERTEX
8
0
10
70.383178125
20
92.51091562500001
30
0
0
VERTEX
8
0
10
70.3599875
20
92.71425625
30
0
0
VERTEX
8
0
10
70.32911875
20
92.91657500000001
30
0
0
VERTEX
8
0
10
70.29061875000001
20
93.11758125
30
0
0
VERTEX
8
0
10
70.2445375
20
93.316984375
30
0
0
VERTEX
8
0
10
70.19094375
20
93.514503125
30
0
0
VERTEX
8
0
10
70.12991562500001
20
93.70985
30
0
0
VERTEX
8
0
10
70.0615375
20
93.90275
30
0
0
VERTEX
8
0
10
69.985909375
20
94.09292500000001
30
0
0
VERTEX
8
0
10
69.903140625
20
94.2801
30
0
0
VERTEX
8
0
10
69.81334687500001
20
94.46400625000001
30
0
0
VERTEX
8
0
10
69.71665625
20
94.64438750000001
30
0
0
VERTEX
8
0
10
69.613209375
20
94.82097812500001
30
0
0
VERTEX
8
0
10
69.50315625
20
94.99352812500001
30
0
0
VERTEX
8
0
10
69.38665312500001
20
95.16179062500001
30
0
0
VERTEX
8
0
10
69.2638625
20
95.325521875
30
0
0
VERTEX
8
0
10
69.134965625
20
95.484490625
30
0
0
VERTEX
8
0
10
69.000146875
20
95.63846875
30
0
0
VERTEX
8
0
10
68.85959687500001
20
95.78723437500001
30
0
0
VERTEX
8
0
10
68.71351875
20
95.930575
30
0
0
VERTEX
8
0
10
68.56211875
20
96.068284375
30
0
0
VERTEX
8
0
10
68.40561875
20
96.20016562500001
30
0
0
VERTEX
8
0
10
68.2442375
20
96.32603125
30
0
0
VERTEX
8
0
10
68.078209375
20
96.4457
30
0
0
VERTEX
8
0
10
67.907775
20
96.55900000000001
30
0
0
VERTEX
8
0
10
67.733171875
20
96.66576875
30
0
0
VERTEX
8
0
10
67.55465625000001
20
96.76585625
30
0
0
VERTEX
8
0
10
67.372478125
20
96.85911250000001
30
0
0
VERTEX
8
0
10
67.186903125
20
96.94540937500001
30
0
0
VERTEX
8
0
10
66.99819375
20
97.024625
30
0
0
VERTEX
8
0
10
66.806625
20
97.096640625
30
0
0
VERTEX
8
0
10
66.612465625
20
97.16135625000001
30
0
0
VERTEX
8
0
10
66.415996875
20
97.218675
30
0
0
VERTEX
8
0
10
66.2175
20
97.268521875
30
0
0
VERTEX
8
0
10
66.01725937500001
20
97.310821875
30
0
0
VERTEX
8
0
10
65.8155625
20
97.3455125
30
0
0
VERTEX
8
0
10
65.612696875
20
97.37254375
30
0
0
VERTEX
8
0
10
65.408953125
20
97.39188125000001
30
0
0
VERTEX
8
0
10
65.204621875
20
97.403496875
30
0
0
VERTEX
8
0
10
65
20
97.40736875
30
0
0
VERTEX
8
0
10
64.795378125
20
97.403496875
30
0
0
VERTEX
8
0
10
64.591046875
20
97.39188125000001
30
0
0
VERTEX
8
0
10
64.387303125
20
97.37254375
30
0
0
VERTEX
8
0
10
64.1844375
20
97.3455125
30
0
0
VERTEX
8
0
10
63.982740625000005
20
97.310821875
30
0
0
VERTEX
8
0
10
63.782500000000006
20
97.268521875
30
0
0
VERTEX
8
0
10
63.584003125
20
97.218675
30
0
0
VERTEX
8
0
10
63.387534375
20
97.16135625000001
30
0
0
VERTEX
8
0
10
63.193375
20
97.096640625
30
0
0
VERTEX
8
0
10
63.00180625
20
97.024625
30
0
0
VERTEX
8
0
10
62.81309687500001
20
96.94540937500001
30
0
0
VERTEX
8
0
10
62.627521875000006
20
96.85911250000001
30
0
0
VERTEX
8
0
10
62.445343750000006
20
96.76585625
30
0
0
VERTEX
8
0
10
62.266828125
20
96.66576875
30
0
0
VERTEX
8
0
10
62.092225000000006
20
96.55900000000001
30
0
0
VERTEX
8
0
10
61.921790625
20
96.4457
30
0
0
VERTEX
8
0
10
61.7557625
20
96.32603125
30
0
0
VERTEX
8
0
10
61.594381250000005
20
96.20016562500001
30
0
0
VERTEX
8
0
10
61.437881250000004
20
96.068284375
30
0
0
VERTEX
8
0
10
61.28648125
20
95.930575
30
0
0
VERTEX
8
0
10
61.140403125000006
20
95.78723437500001
30
0
0
VERTEX
8
0
10
60.999853125
20
95.63846875
30
0
0
VERTEX
8
0
10
60.865034375
20
95.484490625
30
0
0
VERTEX
8
0
10
60.736137500000005
20
95.325521875
30
0
0
VERTEX
8
0
10
60.613346875000005
20
95.16179062500001
30
0
0
VERTEX
8
0
10
60.496843750000004
20
94.99352812500001
30
0
0
VERTEX
8
0
10
60.386790625
20
94.82097812500001
30
0
0
VERTEX
8
0
10
60.28334375
20
94.64438750000001
30
0
0
VERTEX
8
0
10
60.186653125
20
94.46400625000001
30
0
0
VERTEX
8
0
10
60.096859375
20
94.2801
30
0
0
VERTEX
8
0
10
60.014090625
20
94.09292500000001
30
0
0
VERTEX
8
0
10
59.9384625
20
93.90275
30
0
0
VERTEX
8
0
10
59.870084375000005
20
93.70985
30
0
0
VERTEX
8
0
10
59.809056250000005
20
93.514503125
30
0
0
VERTEX
8
0
10
59.7554625
20
93.316984375
30
0
0
VERTEX
8
0
10
59.70938125
20
93.11758125
30
0
0
VERTEX
8
0
10
59.67088125
20
92.91657500000001
30
0
0
VERTEX
8
0
10
59.640012500000005
20
92.71425625
30
0
0
VERTEX
8
0
10
59.616821875
20
92.51091562500001
30
0
0
VERTEX
8
0
10
59.601343750000005
20
92.30684375
30
0
0
VERTEX
8
0
10
59.5936
20
92.10233125
30
0
0
VERTEX
8
0
10
59.5936
20
89.20320000000001
30
0
0
VERTEX
8
0
10
52.2032
20
89.20320000000001
30
0
0
VERTEX
8
0
10
52.2032
20
89.64895
30
0
0
VERTEX
8
0
10
52.225321875000006
20
89.66178125
30
0
42
0.8650777492141445
0
VERTEX
8
0
10
51.880359375000005
20
90.388390625
30
0
0
VERTEX
8
0
10
51.818253125000005
20
90.36349375
30
0
0
VERTEX
8
0
10
36.406400000000005
20
82.65756875000001
30
0
0
VERTEX
8
0
10
36.406400000000005
20
85.7968
30
0
0
VERTEX
8
0
10
38
20
85.7968
30
0
0
VERTEX
8
0
10
38.035465625
20
85.79991875
30
0
42
0.9159168875285966
0
VERTEX
8
0
10
38
20
86.20320000000001
30
0
0
VERTEX
8
0
10
36.351315625000005
20
86.20320000000001
30
0
0
VERTEX
8
0
10
36.34504375
20
86.21324687500001
30
0
0
VERTEX
8
0
10
36.332771875
20
86.23329062500001
30
0
42
0.28654787934083337
0
VERTEX
8
0
10
35.936490625000005
20
86.40140625000001
30
0
0
VERTEX
8
0
10
35.93503125
20
86.40105
30
0
0
VERTEX
8
0
10
35.9329875
20
86.40083750000001
30
0
0
VERTEX
8
0
10
35.8839125
20
86.38946875
30
0
0
VERTEX
8
0
10
35.876653125000004
20
86.38680625
30
0
0
VERTEX
8
0
10
35.871484375
20
86.38554375000001
30
0
0
VERTEX
8
0
10
23.871484375
20
82.38554375000001
30
0
0
VERTEX
8
0
10
23.824775000000002
20
82.366684375
30
0
42
0.86507634225828
0
VERTEX
8
0
10
24.063509375000002
20
81.59859375
30
0
0
VERTEX
8
0
10
24.128515625000002
20
81.61445625
30
0
0
VERTEX
8
0
10
35.5936
20
85.43615
30
0
0
VERTEX
8
0
10
35.5936
20
82
30
0
0
VERTEX
8
0
10
35.593715625
20
81.99815625000001
30
0
0
VERTEX
8
0
10
35.593615625
20
81.99628750000001
30
0
42
0.501841686475745
0
VERTEX
8
0
10
36.119640625
20
81.611609375
30
0
0
VERTEX
8
0
10
36.126290625
20
81.614275
30
0
0
VERTEX
8
0
10
36.163378125
20
81.62788437500001
30
0
0
VERTEX
8
0
10
36.17438125
20
81.633553125
30
0
0
VERTEX
8
0
10
36.181746875
20
81.63650625000001
30
0
0
VERTEX
8
0
10
51.796800000000005
20
89.444034375
30
0
0
VERTEX
8
0
10
51.796800000000005
20
89
30
0
0
VERTEX
8
0
10
51.796871875
20
88.999178125
30
0
0
VERTEX
8
0
10
51.79680625
20
88.99835
30
0
42
0.366018778160151
0
VERTEX
8
0
10
51.967790625
20
88.79936875
30
0
0
VERTEX
8
0
10
52
20
88.7968
30
0
0
VERTEX
8
0
10
59.5936
20
88.7968
30
0
0
VERTEX
8
0
10
59.5936
20
52
30
0
0
VERTEX
8
0
10
59.596721875
20
51.949721875
30
0
42
0.8650765546717226
0
VERTEX
8
0
10
60.400890625
20
51.933315625000006
30
0
0
VERTEX
8
0
10
60.406400000000005
20
52
30
0
0
VERTEX
8
0
10
60.406400000000005
20
92
30
0
0
VERTEX
8
0
10
60.407221875000005
20
92.08693125
30
0
0
VERTEX
8
0
10
60.413803125
20
92.260665625
30
0
0
VERTEX
8
0
10
60.426950000000005
20
92.434028125
30
0
0
VERTEX
8
0
10
60.446650000000005
20
92.60676562500001
30
0
0
VERTEX
8
0
10
60.472871875
20
92.7786375
30
0
0
VERTEX
8
0
10
60.505581250000006
20
92.94939375
30
0
0
VERTEX
8
0
10
60.544725
20
93.11878750000001
30
0
0
VERTEX
8
0
10
60.590253125000004
20
93.28658125
30
0
0
VERTEX
8
0
10
60.642096875
20
93.45253125
30
0
0
VERTEX
8
0
10
60.700184375000006
20
93.6164
30
0
0
VERTEX
8
0
10
60.76443125
20
93.77795312500001
30
0
0
VERTEX
8
0
10
60.834746875
20
93.9369625
30
0
0
VERTEX
8
0
10
60.911025
20
94.09319375
30
0
0
VERTEX
8
0
10
60.993165625
20
94.246425
30
0
0
VERTEX
8
0
10
61.081043750000006
20
94.39644062500001
30
0
0
VERTEX
8
0
10
61.174534375
20
94.543025
30
0
0
VERTEX
8
0
10
61.273506250000004
20
94.68596562500001
30
0
0
VERTEX
8
0
10
61.377815625000004
20
94.82505625
30
0
0
VERTEX
8
0
10
61.487315625
20
94.960103125
30
0
0
VERTEX
8
0
10
61.601846875
20
95.09090625
30
0
0
VERTEX
8
0
10
61.721243750000006
20
95.217284375
30
0
0
VERTEX
8
0
10
61.845340625000006
20
95.339053125
30
0
0
VERTEX
8
0
10
61.973953125
20
95.45603750000001
30
0
0
VERTEX
8
0
10
62.106903125
20
95.568071875
30
0
0
VERTEX
8
0
10
62.243996875
20
95.674996875
30
0
0
VERTEX
8
0
10
62.3850375
20
95.77665625
30
0
0
VERTEX
8
0
10
62.529825
20
95.87290625
30
0
0
VERTEX
8
0
10
62.67815
20
95.96360625
30
0
0
VERTEX
8
0
10
62.829803125000005
20
96.04862812500001
30
0
0
VERTEX
8
0
10
62.9845625
20
96.127853125
30
0
0
VERTEX
8
0
10
63.142209375
20
96.20116250000001
30
0
0
VERTEX
8
0
10
63.302518750000004
20
96.26845625
30
0
0
VERTEX
8
0
10
63.465259375
20
96.329634375
30
0
0
VERTEX
8
0
10
63.630196875
20
96.38460937500001
30
0
0
VERTEX
8
0
10
63.7971
20
96.43330625
30
0
0
VERTEX
8
0
10
63.965725000000006
20
96.47565
30
0
0
VERTEX
8
0
10
64.135828125
20
96.51158125
30
0
0
VERTEX
8
0
10
64.307175
20
96.541053125
30
0
0
VERTEX
8
0
10
64.479509375
20
96.56401562500001
30
0
0
VERTEX
8
0
10
64.652590625
20
96.58044375
30
0
0
VERTEX
8
0
10
64.826171875
20
96.590309375
30
0
0
VERTEX
8
0
10
65
20
96.59360000000001
30
0
0
VERTEX
8
0
10
65.173828125
20
96.590309375
30
0
0
VERTEX
8
0
10
65.347409375
20
96.58044375
30
0
0
VERTEX
8
0
10
65.52049062500001
20
96.56401562500001
30
0
0
VERTEX
8
0
10
65.692825
20
96.541053125
30
0
0
VERTEX
8
0
10
65.864171875
20
96.51158125
30
0
0
VERTEX
8
0
10
66.03427500000001
20
96.47565
30
0
0
VERTEX
8
0
10
66.2029
20
96.43330625
30
0
0
VERTEX
8
0
10
66.369803125
20
96.38460937500001
30
0
0
VERTEX
8
0
10
66.534740625
20
96.329634375
30
0
0
VERTEX
8
0
10
66.69748125000001
20
96.26845625
30
0
0
VERTEX
8
0
10
66.857790625
20
96.20116250000001
30
0
0
VERTEX
8
0
10
67.0154375
20
96.127853125
30
0
0
VERTEX
8
0
10
67.170196875
20
96.04862812500001
30
0
0
VERTEX
8
0
10
67.32185
20
95.96360625
30
0
0
VERTEX
8
0
10
67.470175
20
95.87290625
30
0
0
VERTEX
8
0
10
67.6149625
20
95.77665625
30
0
0
VERTEX
8
0
10
67.756003125
20
95.674996875
30
0
0
VERTEX
8
0
10
67.893096875
20
95.568071875
30
0
0
VERTEX
8
0
10
68.026046875
20
95.45603750000001
30
0
0
VERTEX
8
0
10
68.15465937500001
20
95.339053125
30
0
0
VERTEX
8
0
10
68.27875625
20
95.217284375
30
0
0
VERTEX
8
0
10
68.39815312500001
20
95.09090625
30
0
0
VERTEX
8
0
10
68.512684375
20
94.960103125
30
0
0
VERTEX
8
0
10
68.622184375
20
94.82505625
30
0
0
VERTEX
8
0
10
68.72649375
20
94.68596562500001
30
0
0
VERTEX
8
0
10
68.825465625
20
94.543025
30
0
0
VERTEX
8
0
10
68.91895625000001
20
94.39644062500001
30
0
0
VERTEX
8
0
10
69.006834375
20
94.246425
30
0
0
VERTEX
8
0
10
69.088975
20
94.09319375
30
0
0
VERTEX
8
0
10
69.165253125
20
93.9369625
30
0
0
VERTEX
8
0
10
69.23556875
20
93.77795312500001
30
0
0
VERTEX
8
0
10
69.29981562500001
20
93.6164
30
0
0
VERTEX
8
0
10
69.357903125
20
93.45253125
30
0
0
VERTEX
8
0
10
69.40974687500001
20
93.28658125
30
0
0
VERTEX
8
0
10
69.455275
20
93.11878750000001
30
0
0
VERTEX
8
0
10
69.49441875000001
20
92.94939375
30
0
0
VERTEX
8
0
10
69.527128125
20
92.7786375
30
0
0
VERTEX
8
0
10
69.55335000000001
20
92.60676562500001
30
0
0
VERTEX
8
0
10
69.57305000000001
20
92.434028125
30
0
0
VERTEX
8
0
10
69.586196875
20
92.260665625
30
0
0
VERTEX
8
0
10
69.59277812500001
20
92.08693125
30
0
0
VERTEX
8
0
10
69.59360000000001
20
92
30
0
0
VERTEX
8
0
10
69.59360000000001
20
38.9811375
30
0
0
VERTEX
8
0
10
52.304612500000005
20
56.270125
30
0
0
VERTEX
8
0
10
52.30323125
20
56.271884375000006
30
0
0
VERTEX
8
0
10
52.265150000000006
20
56.309137500000006
30
0
0
VERTEX
8
0
10
52.243840625000004
20
56.32511875
30
0
0
VERTEX
8
0
10
52.161975000000005
20
56.38651875
30
0
0
VERTEX
8
0
10
51.99371875
20
56.50303125
30
0
0
VERTEX
8
0
10
51.821175000000004
20
56.613090625000005
30
0
0
VERTEX
8
0
10
51.6445875
20
56.71654375
30
0
0
VERTEX
8
0
10
51.4642125
20
56.813240625000006
30
0
0
VERTEX
8
0
10
51.28030625
20
56.90304375
30
0
0
VERTEX
8
0
10
51.093134375000005
20
56.985821875
30
0
0
VERTEX
8
0
10
50.902965625
20
57.061459375000005
30
0
0
VERTEX
8
0
10
50.710068750000005
20
57.129843750000006
30
0
0
VERTEX
8
0
10
50.514721875
20
57.190881250000004
30
0
0
VERTEX
8
0
10
50.317206250000005
20
57.24448125
30
0
0
VERTEX
8
0
10
50.11780625
20
57.290571875000005
30
0
0
VERTEX
8
0
10
49.9168
20
57.32908125
30
0
0
VERTEX
8
0
10
49.714484375000005
20
57.35995625
30
0
0
VERTEX
8
0
10
49.51114375
20
57.383156250000006
30
0
0
VERTEX
8
0
10
49.307071875000005
20
57.398643750000005
30
0
0
VERTEX
8
0
10
49.102559375000006
20
57.406396875000006
30
0
0
VERTEX
8
0
10
48.8979
20
57.406403125000004
30
0
0
VERTEX
8
0
10
48.6933875
20
57.398668750000006
30
0
0
VERTEX
8
0
10
48.489312500000004
20
57.3832
30
0
0
VERTEX
8
0
10
48.28596875
20
57.36001875
30
0
0
VERTEX
8
0
10
48.083650000000006
20
57.329159375
30
0
0
VERTEX
8
0
10
47.88264375
20
57.290665625
30
0
0
VERTEX
8
0
10
47.683237500000004
20
57.24459375
30
0
0
VERTEX
8
0
10
47.485715625000005
20
57.191009375
30
0
0
VERTEX
8
0
10
47.290365625
20
57.129987500000006
30
0
0
VERTEX
8
0
10
47.097465625000005
20
57.06161875
30
0
0
VERTEX
8
0
10
46.9072875
20
56.986000000000004
30
0
0
VERTEX
8
0
10
46.720109375
20
56.9032375
30
0
0
VERTEX
8
0
10
46.536196875
20
56.81345
30
0
0
VERTEX
8
0
10
46.3558125
20
56.71676875
30
0
0
VERTEX
8
0
10
46.179218750000004
20
56.61333125
30
0
0
VERTEX
8
0
10
46.006662500000004
20
56.503284375
30
0
0
VERTEX
8
0
10
45.838396875
20
56.386784375000005
30
0
0
VERTEX
8
0
10
45.674656250000005
20
56.264003125
30
0
0
VERTEX
8
0
10
45.515684375
20
56.135112500000005
30
0
0
VERTEX
8
0
10
45.3617
20
56.0003
30
0
0
VERTEX
8
0
10
45.212928125000005
20
55.859756250000004
30
0
0
VERTEX
8
0
10
45.06958125
20
55.713684375
30
0
0
VERTEX
8
0
10
44.931865625
20
55.562290625
30
0
0
VERTEX
8
0
10
44.799978125
20
55.405796875
30
0
0
VERTEX
8
0
10
44.67410625
20
55.244421875
30
0
0
VERTEX
8
0
10
44.55443125
20
55.0784
30
0
0
VERTEX
8
0
10
44.441121875
20
54.907965625
30
0
0
VERTEX
8
0
10
44.334346875
20
54.733368750000004
30
0
0
VERTEX
8
0
10
44.234253125
20
54.55485625
30
0
0
VERTEX
8
0
10
44.1409875
20
54.372684375000006
30
0
0
VERTEX
8
0
10
44.05468125
20
54.187112500000005
30
0
0
VERTEX
8
0
10
43.975459375
20
53.99840625
30
0
0
VERTEX
8
0
10
43.9034375
20
53.806840625
30
0
0
VERTEX
8
0
10
43.8387125
20
53.612684375
30
0
0
VERTEX
8
0
10
43.781384375
20
53.416218750000006
30
0
0
VERTEX
8
0
10
43.731528125000004
20
53.217725
30
0
0
VERTEX
8
0
10
43.689221875
20
53.017484375
30
0
0
VERTEX
8
0
10
43.654521875
20
52.8157875
30
0
0
VERTEX
8
0
10
43.62748125
20
52.612925000000004
30
0
0
VERTEX
8
0
10
43.608134375
20
52.40918125
30
0
0
VERTEX
8
0
10
43.5965125
20
52.204853125
30
0
0
VERTEX
8
0
10
43.592631250000004
20
52.000228125
30
0
0
VERTEX
8
0
10
43.596496875
20
51.795606250000006
30
0
0
VERTEX
8
0
10
43.6081
20
51.591275
30
0
0
VERTEX
8
0
10
43.627428125
20
51.38753125
30
0
0
VERTEX
8
0
10
43.654453125
20
51.1846625
30
0
0
VERTEX
8
0
10
43.6891375
20
50.982965625000006
30
0
0
VERTEX
8
0
10
43.731425
20
50.782721875
30
0
0
VERTEX
8
0
10
43.781262500000004
20
50.584221875000004
30
0
0
VERTEX
8
0
10
43.838578125000005
20
50.387753125
30
0
0
VERTEX
8
0
10
43.903284375000005
20
50.193590625000006
30
0
0
VERTEX
8
0
10
43.975290625
20
50.002018750000005
30
0
0
VERTEX
8
0
10
44.054496875000005
20
49.813306250000004
30
0
0
VERTEX
8
0
10
44.1407875
20
49.627728125000004
30
0
0
VERTEX
8
0
10
44.2340375
20
49.445546875000005
30
0
0
VERTEX
8
0
10
44.334115625
20
49.267025000000004
30
0
0
VERTEX
8
0
10
44.440878125000005
20
49.09241875
30
0
0
VERTEX
8
0
10
44.55416875
20
48.921978125
30
0
0
VERTEX
8
0
10
44.67383125
20
48.755946875
30
0
0
VERTEX
8
0
10
44.799687500000005
20
48.594559375
30
0
0
VERTEX
8
0
10
44.931565625000005
20
48.438053125
30
0
0
VERTEX
8
0
10
45.06926875
20
48.28665
30
0
0
VERTEX
8
0
10
45.2126
20
48.140565625
30
0
0
VERTEX
8
0
10
45.361359375
20
48.000006250000006
30
0
0
VERTEX
8
0
10
45.51533125
20
47.86518125
30
0
0
VERTEX
8
0
10
45.674296875
20
47.736278125000005
30
0
0
VERTEX
8
0
10
45.733046875
20
47.692215625
30
0
0
VERTEX
8
0
10
63.71263125
20
29.71263125
30
0
0
VERTEX
8
0
10
63.750390625
20
29.6792875
30
0
42
0.8650768872290181
0
VERTEX
8
0
10
64.330625
20
30.236318750000002
30
0
0
VERTEX
8
0
10
64.28736875
20
30.287368750000002
30
0
0
VERTEX
8
0
10
46.304612500000005
20
48.270125
30
0
0
VERTEX
8
0
10
46.30323125
20
48.271884375
30
0
0
VERTEX
8
0
10
46.265150000000006
20
48.309137500000006
30
0
0
VERTEX
8
0
10
46.243840625000004
20
48.32511875
30
0
0
VERTEX
8
0
10
46.174790625
20
48.3779375
30
0
0
VERTEX
8
0
10
46.039750000000005
20
48.487440625000005
30
0
0
VERTEX
8
0
10
45.908950000000004
20
48.601975
30
0
0
VERTEX
8
0
10
45.782575
20
48.72138125
30
0
0
VERTEX
8
0
10
45.6608125
20
48.84548125
30
0
0
VERTEX
8
0
10
45.543834375
20
48.9741
30
0
0
VERTEX
8
0
10
45.431803125
20
49.107053125
30
0
0
VERTEX
8
0
10
45.3248875
20
49.244150000000005
30
0
0
VERTEX
8
0
10
45.223234375000004
20
49.385196875000005
30
0
0
VERTEX
8
0
10
45.126990625000005
20
49.529987500000004
30
0
0
VERTEX
8
0
10
45.036296875000005
20
49.67831875
30
0
0
VERTEX
8
0
10
44.951278125
20
49.829971875000005
30
0
0
VERTEX
8
0
10
44.872062500000006
20
49.9847375
30
0
0
VERTEX
8
0
10
44.798756250000004
20
50.142387500000005
30
0
0
VERTEX
8
0
10
44.731471875000004
20
50.3027
30
0
0
VERTEX
8
0
10
44.670300000000005
20
50.465443750000006
30
0
0
VERTEX
8
0
10
44.615331250000004
20
50.630384375000006
30
0
0
VERTEX
8
0
10
44.566643750000004
20
50.7972875
30
0
0
VERTEX
8
0
10
44.52430625
20
50.9659125
30
0
0
VERTEX
8
0
10
44.48838125
20
51.136021875000004
30
0
0
VERTEX
8
0
10
44.45891875
20
51.307365625
30
0
0
VERTEX
8
0
10
44.4359625
20
51.479703125
30
0
0
VERTEX
8
0
10
44.419540625
20
51.652784375
30
0
0
VERTEX
8
0
10
44.409681250000006
20
51.826365625
30
0
0
VERTEX
8
0
10
44.406400000000005
20
52.00019375
30
0
0
VERTEX
8
0
10
44.409696875
20
52.174021875
30
0
0
VERTEX
8
0
10
44.419571875
20
52.347603125
30
0
0
VERTEX
8
0
10
44.436006250000005
20
52.520684375
30
0
0
VERTEX
8
0
10
44.458978125
20
52.69301875
30
0
0
VERTEX
8
0
10
44.48845625
20
52.864362500000006
30
0
0
VERTEX
8
0
10
44.52439375
20
53.034465625
30
0
0
VERTEX
8
0
10
44.566746875
20
53.2030875
30
0
0
VERTEX
8
0
10
44.615446875
20
53.3699875
30
0
0
VERTEX
8
0
10
44.67043125
20
53.534925
30
0
0
VERTEX
8
0
10
44.731615625
20
53.6976625
30
0
0
VERTEX
8
0
10
44.798915625
20
53.857968750000005
30
0
0
VERTEX
8
0
10
44.87223125
20
54.0156125
30
0
0
VERTEX
8
0
10
44.951462500000005
20
54.17036875
30
0
0
VERTEX
8
0
10
45.036493750000005
20
54.322018750000005
30
0
0
VERTEX
8
0
10
45.1272
20
54.470340625000006
30
0
0
VERTEX
8
0
10
45.223456250000005
20
54.615121875
30
0
0
VERTEX
8
0
10
45.32511875
20
54.756159375
30
0
0
VERTEX
8
0
10
45.432050000000004
20
54.89325
30
0
0
VERTEX
8
0
10
45.544090625
20
55.026193750000004
30
0
0
VERTEX
8
0
10
45.66108125
20
55.154803125
30
0
0
VERTEX
8
0
10
45.782853125
20
55.27889375
30
0
0
VERTEX
8
0
10
45.9092375
20
55.398284375
30
0
0
VERTEX
8
0
10
46.040046875
20
55.512809375
30
0
0
VERTEX
8
0
10
46.175096875
20
55.622303125
30
0
0
VERTEX
8
0
10
46.31419375
20
55.72660625
30
0
0
VERTEX
8
0
10
46.4571375
20
55.825571875
30
0
0
VERTEX
8
0
10
46.603725000000004
20
55.919059375
30
0
0
VERTEX
8
0
10
46.753743750000005
20
56.00693125
30
0
0
VERTEX
8
0
10
46.90698125
20
56.089062500000004
30
0
0
VERTEX
8
0
10
47.063215625000005
20
56.1653375
30
0
0
VERTEX
8
0
10
47.222225
20
56.23564375
30
0
0
VERTEX
8
0
10
47.383781250000006
20
56.299884375000005
30
0
0
VERTEX
8
0
10
47.547653125000004
20
56.3579625
30
0
0
VERTEX
8
0
10
47.713606250000005
20
56.409800000000004
30
0
0
VERTEX
8
0
10
47.8814
20
56.455321875
30
0
0
VERTEX
8
0
10
48.050796875
20
56.494459375000005
30
0
0
VERTEX
8
0
10
48.221553125
20
56.527159375000004
30
0
0
VERTEX
8
0
10
48.393425
20
56.553375
30
0
0
VERTEX
8
0
10
48.566165625000004
20
56.573068750000004
30
0
0
VERTEX
8
0
10
48.739528125
20
56.586209375
30
0
0
VERTEX
8
0
10
48.913265625
20
56.59278125
30
0
0
VERTEX
8
0
10
49.087125
20
56.592775
30
0
0
VERTEX
8
0
10
49.260859375
20
56.5861875
30
0
0
VERTEX
8
0
10
49.434221875000006
20
56.57303125
30
0
0
VERTEX
8
0
10
49.606959375
20
56.553325
30
0
0
VERTEX
8
0
10
49.77883125
20
56.527093750000006
30
0
0
VERTEX
8
0
10
49.949584375
20
56.49438125
30
0
0
VERTEX
8
0
10
50.118978125000005
20
56.455228125000005
30
0
0
VERTEX
8
0
10
50.28676875
20
56.40969375
30
0
0
VERTEX
8
0
10
50.452715625
20
56.357840625
30
0
0
VERTEX
8
0
10
50.616584375
20
56.299746875000004
30
0
0
VERTEX
8
0
10
50.778134375
20
56.23549375
30
0
0
VERTEX
8
0
10
50.937137500000006
20
56.165171875000006
30
0
0
VERTEX
8
0
10
51.093365625000004
20
56.088884375
30
0
0
VERTEX
8
0
10
51.246596875
20
56.006740625000006
30
0
0
VERTEX
8
0
10
51.396609375000004
20
55.918856250000005
30
0
0
VERTEX
8
0
10
51.5431875
20
55.825356250000006
30
0
0
VERTEX
8
0
10
51.686121875000005
20
55.72638125
30
0
0
VERTEX
8
0
10
51.734328125000005
20
55.690934375000005
30
0
0
VERTEX
8
0
10
69.59360000000001
20
37.8316625
30
0
0
VERTEX
8
0
10
69.59360000000001
20
16.203200000000002
30
0
0
VERTEX
8
0
10
63
20
16.203200000000002
30
0
0
VERTEX
8
0
10
62.98989687500001
20
16.2023125
30
0
0
VERTEX
8
0
10
62.979734375
20
16.2021875
30
0
42
0.13234210275356542
0
VERTEX
8
0
10
62.880909375
20
16.16464375
30
0
0
VERTEX
8
0
10
62.87454375
20
16.15921875
30
0
42
0.01802390080028543
0
VERTEX
8
0
10
62.86342500000001
20
16.149743750000003
30
0
0
VERTEX
8
0
10
62.856315625
20
16.143684375
30
0
0
VERTEX
8
0
10
58.104740625000005
20
11.392109375
30
0
0
VERTEX
8
0
10
58.099440625
20
11.393331250000001
30
0
0
VERTEX
8
0
10
58.08330625
20
11.397768750000001
30
0
42
0.010405010547400638
0
VERTEX
8
0
10
58.066684375
20
11.400890625
30
0
0
VERTEX
8
0
10
58.055496875
20
11.401815625000001
30
0
42
0.027416808266298623
0
VERTEX
8
0
10
58.011196875
20
11.405475000000001
30
0
0
VERTEX
8
0
10
58
20
11.406400000000001
30
0
0
VERTEX
8
0
10
54.406400000000005
20
11.406400000000001
30
0
0
VERTEX
8
0
10
54.406400000000005
20
14.986903125000001
30
0
0
VERTEX
8
0
10
54.407271875
20
15.000425
30
0
0
VERTEX
8
0
10
54.40373125
20
15.05358125
30
0
0
VERTEX
8
0
10
54.398509375
20
15.079703125
30
0
0
VERTEX
8
0
10
54.378025
20
15.1821125
30
0
0
VERTEX
8
0
10
54.329321875000005
20
15.38523125
30
0
0
VERTEX
8
0
10
54.272953125
20
15.586356250000001
30
0
0
VERTEX
8
0
10
54.208993750000005
20
15.785200000000001
30
0
0
VERTEX
8
0
10
54.1375375
20
15.981475000000001
30
0
0
SEQEND
0
POLYLINE
66
1
8
1_copper
10
0.0
20
0.0
30
0.0
70
1
0
VERTEX
8
0
10
57.5936
20
9.4064
30
0
0
VERTEX
8
0
10
22.4064
20
9.4064
30
0
0
VERTEX
8
0
10
22.4064
20
10.5936
30
0
0
VERTEX
8
0
10
57.5936
20
10.5936
30
0
0
SEQEND
0
POLYLINE
66
1
8
1_copper
10
0.0
20
0.0
30
0.0
70
1
0
VERTEX
8
0
10
53.5936
20
14.957896875000001
30
0
0
VERTEX
8
0
10
53.5936
20
11.406400000000001
30
0
0
VERTEX
8
0
10
26.4064
20
11.406400000000001
30
0
0
VERTEX
8
0
10
26.4064
20
14.957896875000001
30
0
0
VERTEX
8
0
10
26.416790625
20
15.007409375
30
0
0
VERTEX
8
0
10
26.458296875000002
20
15.180509375000002
30
0
0
VERTEX
8
0
10
26.5063375
20
15.351909375
30
0
0
VERTEX
8
0
10
26.56084375
20
15.521365625000001
30
0
0
VERTEX
8
0
10
26.621737500000002
20
15.688634375000001
30
0
0
VERTEX
8
0
10
26.68893125
20
15.853471875
30
0
0
VERTEX
8
0
10
26.762328125
20
16.015643750000002
30
0
0
VERTEX
8
0
10
26.841821875
20
16.1749125
30
0
0
VERTEX
8
0
10
26.927303125
20
16.331053125
30
0
0
VERTEX
8
0
10
27.018640625
20
16.483840625
30
0
0
VERTEX
8
0
10
27.115709375
20
16.63305
30
0
0
VERTEX
8
0
10
27.218365625
20
16.778475
30
0
0
VERTEX
8
0
10
27.326465625
20
16.919900000000002
30
0
0
VERTEX
8
0
10
27.43985
20
17.057125
30
0
0
VERTEX
8
0
10
27.558356250000003
20
17.18995
30
0
0
VERTEX
8
0
10
27.681815625000002
20
17.318184375
30
0
0
VERTEX
8
0
10
27.81005
20
17.44164375
30
0
0
VERTEX
8
0
10
27.942875
20
17.56015
30
0
0
VERTEX
8
0
10
28.0801
20
17.673534375
30
0
0
VERTEX
8
0
10
28.221525
20
17.781634375
30
0
0
VERTEX
8
0
10
28.366950000000003
20
17.884290625000002
30
0
0
VERTEX
8
0
10
28.516159375
20
17.981359375
30
0
0
VERTEX
8
0
10
28.668946875
20
18.072696875000002
30
0
0
VERTEX
8
0
10
28.825087500000002
20
18.158178125
30
0
0
VERTEX
8
0
10
28.98435625
20
18.237671875
30
0
0
VERTEX
8
0
10
29.146528125
20
18.31106875
30
0
0
VERTEX
8
0
10
29.311365625
20
18.3782625
30
0
0
VERTEX
8
0
10
29.478634375000002
20
18.43915625
30
0
0
VERTEX
8
0
10
29.648090625000002
20
18.4936625
30
0
0
VERTEX
8
0
10
29.819490625
20
18.541703125
30
0
0
VERTEX
8
0
10
29.992590625000002
20
18.583209375
30
0
0
VERTEX
8
0
10
30.042103125
20
18.593600000000002
30
0
0
VERTEX
8
0
10
49.957896875
20
18.593600000000002
30
0
0
VERTEX
8
0
10
50.007409375
20
18.583209375
30
0
0
VERTEX
8
0
10
50.180509375
20
18.541703125
30
0
0
VERTEX
8
0
10
50.351909375000005
20
18.4936625
30
0
0
VERTEX
8
0
10
50.521365625
20
18.43915625
30
0
0
VERTEX
8
0
10
50.688634375
20
18.3782625
30
0
0
VERTEX
8
0
10
50.853471875000004
20
18.31106875
30
0
0
VERTEX
8
0
10
51.01564375
20
18.237671875
30
0
0
VERTEX
8
0
10
51.174912500000005
20
18.158178125
30
0
0
VERTEX
8
0
10
51.331053125000004
20
18.072696875000002
30
0
0
VERTEX
8
0
10
51.483840625
20
17.981359375
30
0
0
VERTEX
8
0
10
51.633050000000004
20
17.884290625000002
30
0
0
VERTEX
8
0
10
51.778475
20
17.781634375
30
0
0
VERTEX
8
0
10
51.919900000000005
20
17.673534375
30
0
0
VERTEX
8
0
10
52.057125
20
17.56015
30
0
0
VERTEX
8
0
10
52.18995
20
17.44164375
30
0
0
VERTEX
8
0
10
52.318184375
20
17.318184375
30
0
0
VERTEX
8
0
10
52.441643750000004
20
17.18995
30
0
0
VERTEX
8
0
10
52.56015
20
17.057125
30
0
0
VERTEX
8
0
10
52.673534375
20
16.919900000000002
30
0
0
VERTEX
8
0
10
52.781634375
20
16.778475
30
0
0
VERTEX
8
0
10
52.884290625000006
20
16.63305
30
0
0
VERTEX
8
0
10
52.981359375000004
20
16.483840625
30
0
0
VERTEX
8
0
10
53.072696875000005
20
16.331053125
30
0
0
VERTEX
8
0
10
53.158178125
20
16.1749125
30
0
0
VERTEX
8
0
10
53.237671875000004
20
16.015643750000002
30
0
0
VERTEX
8
0
10
53.311068750000004
20
15.853471875
30
0
0
VERTEX
8
0
10
53.378262500000005
20
15.688634375000001
30
0
0
VERTEX
8
0
10
53.43915625
20
15.521365625000001
30
0
0
VERTEX
8
0
10
53.4936625
20
15.351909375
30
0
0
VERTEX
8
0
10
53.541703125000005
20
15.180509375000002
30
0
0
VERTEX
8
0
10
53.583209375
20
15.007409375
30
0
0
SEQEND
0
POLYLINE
66
1
8
1_copper
10
0.0
20
0.0
30
0.0
70
1
0
VERTEX
8
0
10
40.75
20
30.700000000000003
30
0
0
VERTEX
8
0
10
39.25
20
30.700000000000003
30
0
0
VERTEX
8
0
10
39.25
20
29.400000000000002
30
0
0
VERTEX
8
0
10
40.75
20
29.400000000000002
30
0
0
SEQEND
0
POLYLINE
66
1
8
1_copper
10
0.0
20
0.0
30
0.0
70
1
0
VERTEX
8
0
10
40.6
20
28.650000000000002
30
0
0
VERTEX
8
0
10
39.4
20
28.650000000000002
30
0
0
VERTEX
8
0
10
39.4
20
27.450000000000003
30
0
0
VERTEX
8
0
10
40.6
20
27.450000000000003
30
0
0
SEQEND
0
POLYLINE
66
1
8
1_copper
10
0.0
20
0.0
30
0.0
70
1
0
VERTEX
8
0
10
38.6
20
88.65
30
0
0
VERTEX
8
0
10
37.4
20
88.65
30
0
0
VERTEX
8
0
10
37.4
20
87.45
30
0
0
VERTEX
8
0
10
38.6
20
87.45
30
0
0
SEQEND
0
POLYLINE
66
1
8
1_copper
10
0.0
20
0.0
30
0.0
70
1
0
VERTEX
8
0
10
21.6
20
84.75
30
0
0
VERTEX
8
0
10
20.3
20
84.75
30
0
0
VERTEX
8
0
10
20.3
20
83.25
30
0
0
VERTEX
8
0
10
21.6
20
83.25
30
0
0
SEQEND
0
POLYLINE
66
1
8
1_copper
10
0.0
20
0.0
30
0.0
70
1
0
VERTEX
8
0
10
38.6
20
86.55
30
0
0
VERTEX
8
0
10
37.4
20
86.55
30
0
0
VERTEX
8
0
10
37.4
20
85.35000000000001
30
0
0
VERTEX
8
0
10
38.6
20
85.35000000000001
30
0
0
SEQEND
0
POLYLINE
66
1
8
1_copper
10
0.0
20
0.0
30
0.0
70
1
0
VERTEX
8
0
10
39.6
20
40.75
30
0
0
VERTEX
8
0
10
38.300000000000004
20
40.75
30
0
0
VERTEX
8
0
10
38.300000000000004
20
39.25
30
0
0
VERTEX
8
0
10
39.6
20
39.25
30
0
0
SEQEND
0
POLYLINE
66
1
8
1_copper
10
0.0
20
0.0
30
0.0
70
1
0
VERTEX
8
0
10
36.6
20
26.75
30
0
0
VERTEX
8
0
10
35.300000000000004
20
26.75
30
0
0
VERTEX
8
0
10
35.300000000000004
20
25.25
30
0
0
VERTEX
8
0
10
36.6
20
25.25
30
0
0
SEQEND
0
POLYLINE
66
1
8
1_copper
10
0.0
20
0.0
30
0.0
70
1
0
VERTEX
8
0
10
40.6
20
26.55
30
0
0
VERTEX
8
0
10
39.4
20
26.55
30
0
0
VERTEX
8
0
10
39.4
20
25.35
30
0
0
VERTEX
8
0
10
40.6
20
25.35
30
0
0
SEQEND
0
POLYLINE
66
1
8
1_copper
10
0.0
20
0.0
30
0.0
70
1
0
VERTEX
8
0
10
28.950000000000003
20
37.6
30
0
0
VERTEX
8
0
10
27.950000000000003
20
37.6
30
0
0
VERTEX
8
0
10
27.950000000000003
20
36.2
30
0
0
VERTEX
8
0
10
28.950000000000003
20
36.2
30
0
0
SEQEND
0
POLYLINE
66
1
8
1_copper
10
0.0
20
0.0
30
0.0
70
1
0
VERTEX
8
0
10
33.6
20
33.050000000000004
30
0
0
VERTEX
8
0
10
32.2
20
33.050000000000004
30
0
0
VERTEX
8
0
10
32.2
20
32.050000000000004
30
0
0
VERTEX
8
0
10
33.6
20
32.050000000000004
30
0
0
SEQEND
0
POLYLINE
66
1
8
1_copper
10
0.0
20
0.0
30
0.0
70
1
0
VERTEX
8
0
10
40.75
20
35.7
30
0
0
VERTEX
8
0
10
39.25
20
35.7
30
0
0
VERTEX
8
0
10
39.25
20
34.4
30
0
0
VERTEX
8
0
10
40.75
20
34.4
30
0
0
SEQEND
0
POLYLINE
66
1
8
1_copper
10
0.0
20
0.0
30
0.0
70
1
0
VERTEX
8
0
10
35.800000000000004
20
34
30
0
0
VERTEX
8
0
10
34.4
20
34
30
0
0
VERTEX
8
0
10
34.4
20
33
30
0
0
VERTEX
8
0
10
35.800000000000004
20
33
30
0
0
SEQEND
0
POLYLINE
66
1
8
1_copper
10
0.0
20
0.0
30
0.0
70
1
0
VERTEX
8
0
10
40.75
20
32.6
30
0
0
VERTEX
8
0
10
39.25
20
32.6
30
0
0
VERTEX
8
0
10
39.25
20
31.3
30
0
0
VERTEX
8
0
10
40.75
20
31.3
30
0
0
SEQEND
0
POLYLINE
66
1
8
1_copper
10
0.0
20
0.0
30
0.0
70
1
0
VERTEX
8
0
10
19.7
20
84.75
30
0
0
VERTEX
8
0
10
18.400000000000002
20
84.75
30
0
0
VERTEX
8
0
10
18.400000000000002
20
83.25
30
0
0
VERTEX
8
0
10
19.7
20
83.25
30
0
0
SEQEND
0
POLYLINE
66
1
8
1_copper
10
0.0
20
0.0
30
0.0
70
1
0
VERTEX
8
0
10
28
20
39.800000000000004
30
0
0
VERTEX
8
0
10
27
20
39.800000000000004
30
0
0
VERTEX
8
0
10
27
20
38.4
30
0
0
VERTEX
8
0
10
28
20
38.4
30
0
0
SEQEND
0
POLYLINE
66
1
8
1_copper
10
0.0
20
0.0
30
0.0
70
1
0
VERTEX
8
0
10
21.75
20
38.6
30
0
0
VERTEX
8
0
10
20.25
20
38.6
30
0
0
VERTEX
8
0
10
20.25
20
37.300000000000004
30
0
0
VERTEX
8
0
10
21.75
20
37.300000000000004
30
0
0
SEQEND
0
POLYLINE
66
1
8
1_copper
10
0.0
20
0.0
30
0.0
70
1
0
VERTEX
8
0
10
37.7
20
40.75
30
0
0
VERTEX
8
0
10
36.4
20
40.75
30
0
0
VERTEX
8
0
10
36.4
20
39.25
30
0
0
VERTEX
8
0
10
37.7
20
39.25
30
0
0
SEQEND
0
POLYLINE
66
1
8
1_copper
10
0.0
20
0.0
30
0.0
70
1
0
VERTEX
8
0
10
40.75
20
37.6
30
0
0
VERTEX
8
0
10
39.25
20
37.6
30
0
0
VERTEX
8
0
10
39.25
20
36.300000000000004
30
0
0
VERTEX
8
0
10
40.75
20
36.300000000000004
30
0
0
SEQEND
0
POLYLINE
66
1
8
1_copper
10
0.0
20
0.0
30
0.0
70
1
0
VERTEX
8
0
10
27.05
20
37.6
30
0
0
VERTEX
8
0
10
26.05
20
37.6
30
0
0
VERTEX
8
0
10
26.05
20
36.2
30
0
0
VERTEX
8
0
10
27.05
20
36.2
30
0
0
SEQEND
0
POLYLINE
66
1
8
1_copper
10
0.0
20
0.0
30
0.0
70
1
0
VERTEX
8
0
10
21.75
20
36.7
30
0
0
VERTEX
8
0
10
20.25
20
36.7
30
0
0
VERTEX
8
0
10
20.25
20
35.4
30
0
0
VERTEX
8
0
10
21.75
20
35.4
30
0
0
SEQEND
0
POLYLINE
66
1
8
1_copper
10
0.0
20
0.0
30
0.0
70
1
0
VERTEX
8
0
10
33.6
20
34.95
30
0
0
VERTEX
8
0
10
32.2
20
34.95
30
0
0
VERTEX
8
0
10
32.2
20
33.95
30
0
0
VERTEX
8
0
10
33.6
20
33.95
30
0
0
SEQEND
0
POLYLINE
66
1
8
1_copper
10
0.0
20
0.0
30
0.0
70
1
0
VERTEX
8
0
10
34.7
20
26.75
30
0
0
VERTEX
8
0
10
33.4
20
26.75
30
0
0
VERTEX
8
0
10
33.4
20
25.25
30
0
0
VERTEX
8
0
10
34.7
20
25.25
30
0
0
SEQEND
0
POLYLINE
66
1
8
1_copper
10
0.0
20
0.0
30
0.0
70
1
0
VERTEX
8
0
10
40.20238125
20
35.0093
30
0
42
0.6516987303766603
0
VERTEX
8
0
10
39.856315625
20
35.143684375
30
0
0
VERTEX
8
0
10
39.356315625
20
34.643684375
30
0
0
VERTEX
8
0
10
39.33344375
20
34.6164
30
0
42
0.9159160613300047
0
VERTEX
8
0
10
39.643684375
20
34.356315625
30
0
0
VERTEX
8
0
10
39.796800000000005
20
34.50943125
30
0
0
VERTEX
8
0
10
39.796800000000005
20
33.7032
30
0
0
VERTEX
8
0
10
35
20
33.7032
30
0
0
VERTEX
8
0
10
34.964534375
20
33.700081250000004
30
0
42
0.9159168875285966
0
VERTEX
8
0
10
35
20
33.296800000000005
30
0
0
VERTEX
8
0
10
39.796800000000005
20
33.296800000000005
30
0
0
VERTEX
8
0
10
39.796800000000005
20
32
30
0
0
VERTEX
8
0
10
39.79991875
20
31.964534375000003
30
0
42
0.9159168875285966
0
VERTEX
8
0
10
40.2032
20
32
30
0
0
VERTEX
8
0
10
40.2032
20
35
30
0
0
SEQEND
0
POLYLINE
66
1
8
1_copper
10
0.0
20
0.0
30
0.0
70
1
0
VERTEX
8
0
10
36.29991875
20
39.464534375
30
0
42
0.9159168875285966
0
VERTEX
8
0
10
36.7032
20
39.5
30
0
0
VERTEX
8
0
10
36.7032
20
39.8476
30
0
0
VERTEX
8
0
10
36.936875
20
39.8476
30
0
0
VERTEX
8
0
10
39.3476
20
37.436875
30
0
0
VERTEX
8
0
10
39.3476
20
37
30
0
0
VERTEX
8
0
10
39.350715625
20
36.969334375
30
0
42
0.8579423386022229
0
VERTEX
8
0
10
39.651596875
20
36.984384375000005
30
0
0
VERTEX
8
0
10
39.6524
20
37
30
0
0
VERTEX
8
0
10
39.6524
20
37.5
30
0
0
VERTEX
8
0
10
39.651821875
20
37.505696875000005
30
0
0
VERTEX
8
0
10
39.651971875
20
37.511415625000005
30
0
42
0.1531278540915039
0
VERTEX
8
0
10
39.6182375
20
37.59615625
30
0
0
VERTEX
8
0
10
39.6077625
20
37.6077625
30
0
0
VERTEX
8
0
10
37.1077625
20
40.1077625
30
0
0
VERTEX
8
0
10
37.103325000000005
20
40.11138125
30
0
0
VERTEX
8
0
10
37.0993875
20
40.115531250000004
30
0
42
0.15312467584094633
0
VERTEX
8
0
10
37.015615625
20
40.151596875
30
0
0
VERTEX
8
0
10
37
20
40.1524
30
0
0
VERTEX
8
0
10
36.7032
20
40.1524
30
0
0
VERTEX
8
0
10
36.7032
20
41
30
0
0
VERTEX
8
0
10
36.703128125
20
41.000821875
30
0
0
VERTEX
8
0
10
36.703193750000004
20
41.001650000000005
30
0
42
0.366018778160151
0
VERTEX
8
0
10
36.532209375
20
41.20063125
30
0
0
VERTEX
8
0
10
36.5
20
41.2032
30
0
0
VERTEX
8
0
10
33
20
41.2032
30
0
0
VERTEX
8
0
10
32.999178125
20
41.203128125
30
0
0
VERTEX
8
0
10
32.99835
20
41.203193750000004
30
0
42
0.366018778160151
0
VERTEX
8
0
10
32.79936875
20
41.032209375
30
0
0
VERTEX
8
0
10
32.796800000000005
20
41
30
0
0
VERTEX
8
0
10
32.796800000000005
20
40.08416875
30
0
0
VERTEX
8
0
10
30.86503125
20
38.1524
30
0
0
VERTEX
8
0
10
27
20
38.1524
30
0
0
VERTEX
8
0
10
26.994303125000002
20
38.151821875
30
0
0
VERTEX
8
0
10
26.988584375000002
20
38.151971875
30
0
42
0.1531278540915039
0
VERTEX
8
0
10
26.90384375
20
38.1182375
30
0
0
VERTEX
8
0
10
26.8922375
20
38.1077625
30
0
0
VERTEX
8
0
10
26.3922375
20
37.6077625
30
0
0
VERTEX
8
0
10
26.372756250000002
20
37.583875
30
0
42
0.857945715844618
0
VERTEX
8
0
10
26.59615625
20
37.3817625
30
0
0
VERTEX
8
0
10
26.6077625
20
37.3922375
30
0
0
VERTEX
8
0
10
27.063125000000003
20
37.8476
30
0
0
VERTEX
8
0
10
30.866646875
20
37.8476
30
0
0
VERTEX
8
0
10
30.884956250000002
20
37.832503125
30
0
42
0.3614170673112472
0
VERTEX
8
0
10
31.143684375000003
20
37.856315625
30
0
0
VERTEX
8
0
10
33.143684375
20
39.856315625
30
0
0
VERTEX
8
0
10
33.150215625
20
39.86410625
30
0
0
VERTEX
8
0
10
33.157296875
20
39.871362500000004
30
0
42
0.13234447677005623
0
VERTEX
8
0
10
33.20063125
20
39.967790625
30
0
0
VERTEX
8
0
10
33.201293750000005
20
39.976115625
30
0
42
0.01805948283611007
0
VERTEX
8
0
10
33.202459375000004
20
39.99070625
30
0
0
VERTEX
8
0
10
33.2032
20
40
30
0
0
VERTEX
8
0
10
33.2032
20
40.796800000000005
30
0
0
VERTEX
8
0
10
36.296800000000005
20
40.796800000000005
30
0
0
VERTEX
8
0
10
36.296800000000005
20
39.5
30
0
0
SEQEND
0
POLYLINE
66
1
8
1_copper
10
0.0
20
0.0
30
0.0
70
1
0
VERTEX
8
0
10
40.035465625
20
25.79991875
30
0
42
0.9159168875285966
0
VERTEX
8
0
10
40
20
26.203200000000002
30
0
0
VERTEX
8
0
10
36
20
26.203200000000002
30
0
0
VERTEX
8
0
10
35.964534375
20
26.20008125
30
0
42
0.9159168875285966
0
VERTEX
8
0
10
36
20
25.7968
30
0
0
VERTEX
8
0
10
40
20
25.7968
30
0
0
SEQEND
0
POLYLINE
66
1
8
1_copper
10
0.0
20
0.0
30
0.0
70
1
0
VERTEX
8
0
10
20.79991875
20
37.964534375
30
0
42
0.9159168875285966
0
VERTEX
8
0
10
21.203200000000002
20
38
30
0
0
VERTEX
8
0
10
21.203200000000002
20
39.296800000000005
30
0
0
VERTEX
8
0
10
27.5
20
39.296800000000005
30
0
0
VERTEX
8
0
10
27.535465625
20
39.29991875
30
0
42
0.9159168875285966
0
VERTEX
8
0
10
27.5
20
39.7032
30
0
0
VERTEX
8
0
10
21.203200000000002
20
39.7032
30
0
0
VERTEX
8
0
10
21.203200000000002
20
44.5
30
0
0
VERTEX
8
0
10
21.20008125
20
44.535465625
30
0
42
0.9159168875285966
0
VERTEX
8
0
10
20.7968
20
44.5
30
0
0
VERTEX
8
0
10
20.7968
20
38
30
0
0
SEQEND
0
POLYLINE
66
1
8
1_copper
10
0.0
20
0.0
30
0.0
70
1
0
VERTEX
8
0
10
32.535465625
20
32.29991875
30
0
42
0.9159168875285966
0
VERTEX
8
0
10
32.5
20
32.7032
30
0
0
VERTEX
8
0
10
31.58416875
20
32.7032
30
0
0
VERTEX
8
0
10
28.703200000000002
20
35.58416875
30
0
0
VERTEX
8
0
10
28.703200000000002
20
37
30
0
0
VERTEX
8
0
10
28.70008125
20
37.035465625
30
0
42
0.9159168875285966
0
VERTEX
8
0
10
28.2968
20
37
30
0
0
VERTEX
8
0
10
28.2968
20
35.5
30
0
0
VERTEX
8
0
10
28.297687500000002
20
35.489896875
30
0
0
VERTEX
8
0
10
28.297812500000003
20
35.479734375
30
0
42
0.13234210275356542
0
VERTEX
8
0
10
28.33535625
20
35.380909375
30
0
0
VERTEX
8
0
10
28.340781250000003
20
35.37454375
30
0
42
0.01802390080028543
0
VERTEX
8
0
10
28.35025625
20
35.363425
30
0
0
VERTEX
8
0
10
28.356315625
20
35.356315625
30
0
0
VERTEX
8
0
10
31.356315625
20
32.356315625
30
0
0
VERTEX
8
0
10
31.364106250000003
20
32.349784375
30
0
0
VERTEX
8
0
10
31.3713625
20
32.342703125
30
0
42
0.13234447677005623
0
VERTEX
8
0
10
31.467790625000003
20
32.29936875
30
0
0
VERTEX
8
0
10
31.476115625000002
20
32.29870625
30
0
42
0.01805948283611007
0
VERTEX
8
0
10
31.490706250000002
20
32.297540625
30
0
0
VERTEX
8
0
10
31.5
20
32.296800000000005
30
0
0
VERTEX
8
0
10
32.5
20
32.296800000000005
30
0
0
SEQEND
0
POLYLINE
66
1
8
1_copper
10
0.0
20
0.0
30
0.0
70
1
0
VERTEX
8
0
10
34.018621875
20
25.797656250000003
30
0
42
0.6354877265554064
0
VERTEX
8
0
10
34.143684375
20
26.143684375000003
30
0
0
VERTEX
8
0
10
33.7032
20
26.58416875
30
0
0
VERTEX
8
0
10
33.7032
20
30.8476
30
0
0
VERTEX
8
0
10
34.5
20
30.8476
30
0
0
VERTEX
8
0
10
34.503803125000005
20
30.847987500000002
30
0
0
VERTEX
8
0
10
34.5076125
20
30.847790625000002
30
0
42
0.3701874288596992
0
VERTEX
8
0
10
34.651596875
20
30.984384375
30
0
0
VERTEX
8
0
10
34.6524
20
31
30
0
0
VERTEX
8
0
10
34.6524
20
32
30
0
0
VERTEX
8
0
10
34.651821875
20
32.005696875
30
0
0
VERTEX
8
0
10
34.651971875
20
32.011415625000005
30
0
42
0.1531278540915039
0
VERTEX
8
0
10
34.6182375
20
32.09615625
30
0
0
VERTEX
8
0
10
34.6077625
20
32.1077625
30
0
0
VERTEX
8
0
10
34.1524
20
32.563125
30
0
0
VERTEX
8
0
10
34.1524
20
34
30
0
0
VERTEX
8
0
10
34.151821875
20
34.005696875
30
0
0
VERTEX
8
0
10
34.151971875
20
34.011415625000005
30
0
42
0.1531278540915039
0
VERTEX
8
0
10
34.1182375
20
34.09615625
30
0
0
VERTEX
8
0
10
34.1077625
20
34.1077625
30
0
0
VERTEX
8
0
10
33.6077625
20
34.6077625
30
0
0
VERTEX
8
0
10
33.603325
20
34.61138125
30
0
0
VERTEX
8
0
10
33.5993875
20
34.615531250000004
30
0
42
0.15312467584094633
0
VERTEX
8
0
10
33.515615625
20
34.651596875
30
0
0
VERTEX
8
0
10
33.5
20
34.6524
30
0
0
VERTEX
8
0
10
33
20
34.6524
30
0
0
VERTEX
8
0
10
32.969334375
20
34.649284375
30
0
42
0.8579423386022229
0
VERTEX
8
0
10
32.984384375000005
20
34.348403125000004
30
0
0
VERTEX
8
0
10
33
20
34.3476
30
0
0
VERTEX
8
0
10
33.436875
20
34.3476
30
0
0
VERTEX
8
0
10
33.8476
20
33.936875
30
0
0
VERTEX
8
0
10
33.8476
20
32.5
30
0
0
VERTEX
8
0
10
33.848178125000004
20
32.494303125
30
0
0
VERTEX
8
0
10
33.848028125
20
32.488584375
30
0
42
0.1531278540915039
0
VERTEX
8
0
10
33.8817625
20
32.40384375
30
0
0
VERTEX
8
0
10
33.8922375
20
32.3922375
30
0
0
VERTEX
8
0
10
34.3476
20
31.936875
30
0
0
VERTEX
8
0
10
34.3476
20
31.1524
30
0
0
VERTEX
8
0
10
33.633787500000004
20
31.1524
30
0
0
VERTEX
8
0
10
33.629909375000004
20
31.156246875
30
0
42
0.36601620557632886
0
VERTEX
8
0
10
33.367568750000004
20
31.154115625000003
30
0
0
VERTEX
8
0
10
33.365893750000005
20
31.1524
30
0
0
VERTEX
8
0
10
29.063125000000003
20
31.1524
30
0
0
VERTEX
8
0
10
24.1077625
20
36.1077625
30
0
0
VERTEX
8
0
10
24.103325
20
36.11138125
30
0
0
VERTEX
8
0
10
24.099387500000002
20
36.115531250000004
30
0
42
0.15312467584094633
0
VERTEX
8
0
10
24.015615625000002
20
36.151596875
30
0
0
VERTEX
8
0
10
24
20
36.1524
30
0
0
VERTEX
8
0
10
21.5
20
36.1524
30
0
0
VERTEX
8
0
10
21.469334375000003
20
36.149284375
30
0
42
0.8579423386022229
0
VERTEX
8
0
10
21.484384375
20
35.848403125000004
30
0
0
VERTEX
8
0
10
21.5
20
35.8476
30
0
0
VERTEX
8
0
10
23.936875
20
35.8476
30
0
0
VERTEX
8
0
10
28.8922375
20
30.8922375
30
0
0
VERTEX
8
0
10
28.896675000000002
20
30.888618750000003
30
0
0
VERTEX
8
0
10
28.9006125
20
30.88446875
30
0
42
0.15312467584094633
0
VERTEX
8
0
10
28.984384375
20
30.848403125
30
0
0
VERTEX
8
0
10
29
20
30.8476
30
0
0
VERTEX
8
0
10
33.296800000000005
20
30.8476
30
0
0
VERTEX
8
0
10
33.296800000000005
20
26.5
30
0
0
VERTEX
8
0
10
33.2976875
20
26.489896875000003
30
0
0
VERTEX
8
0
10
33.2978125
20
26.479734375
30
0
42
0.13234210275356542
0
VERTEX
8
0
10
33.335356250000004
20
26.380909375
30
0
0
VERTEX
8
0
10
33.34078125
20
26.37454375
30
0
42
0.01802390080028543
0
VERTEX
8
0
10
33.35025625
20
26.363425000000003
30
0
0
VERTEX
8
0
10
33.356315625
20
26.356315625
30
0
0
VERTEX
8
0
10
33.856315625
20
25.856315625
30
0
0
VERTEX
8
0
10
33.8836
20
25.83344375
30
0
42
0.13234253430189524
0
VERTEX
8
0
10
33.983021875
20
25.797509375
30
0
0
SEQEND
0
POLYLINE
66
1
8
1_copper
10
0.0
20
0.0
30
0.0
70
1
0
VERTEX
8
0
10
40.038084375000004
20
27.852434375
30
0
42
0.313608560114392
0
VERTEX
8
0
10
40.151596875
20
27.984384375
30
0
0
VERTEX
8
0
10
40.1524
20
28
30
0
0
VERTEX
8
0
10
40.1524
20
30
30
0
0
VERTEX
8
0
10
40.149284375
20
30.030665625
30
0
42
0.8579423386022229
0
VERTEX
8
0
10
39.848403125000004
20
30.015615625000002
30
0
0
VERTEX
8
0
10
39.8476
20
30
30
0
0
VERTEX
8
0
10
39.8476
20
28
30
0
0
VERTEX
8
0
10
39.850715625
20
27.969334375000003
30
0
42
0.3701845070726307
0
VERTEX
8
0
10
40.0076125
20
27.847790625000002
30
0
0
SEQEND
0
POLYLINE
66
1
8
1_copper
10
0.0
20
0.0
30
0.0
70
1
0
VERTEX
8
0
10
43.503803125000005
20
25.347987500000002
30
0
0
VERTEX
8
0
10
43.5076125
20
25.347790625000002
30
0
42
0.3701874288596992
0
VERTEX
8
0
10
43.651596875
20
25.484384375
30
0
0
VERTEX
8
0
10
43.6524
20
25.5
30
0
0
VERTEX
8
0
10
43.6524
20
38
30
0
0
VERTEX
8
0
10
43.651821875
20
38.005696875000005
30
0
0
VERTEX
8
0
10
43.651971875
20
38.011415625000005
30
0
42
0.1531278540915039
0
VERTEX
8
0
10
43.6182375
20
38.09615625
30
0
0
VERTEX
8
0
10
43.6077625
20
38.1077625
30
0
0
VERTEX
8
0
10
41.6077625
20
40.1077625
30
0
0
VERTEX
8
0
10
41.603325000000005
20
40.11138125
30
0
0
VERTEX
8
0
10
41.5993875
20
40.115531250000004
30
0
42
0.15312467584094633
0
VERTEX
8
0
10
41.515615625
20
40.151596875
30
0
0
VERTEX
8
0
10
41.5
20
40.1524
30
0
0
VERTEX
8
0
10
39
20
40.1524
30
0
0
VERTEX
8
0
10
38.969334375
20
40.149284375
30
0
42
0.8579423386022229
0
VERTEX
8
0
10
38.984384375000005
20
39.848403125000004
30
0
0
VERTEX
8
0
10
39
20
39.8476
30
0
0
VERTEX
8
0
10
41.436875
20
39.8476
30
0
0
VERTEX
8
0
10
43.3476
20
37.936875
30
0
0
VERTEX
8
0
10
43.3476
20
25.6524
30
0
0
VERTEX
8
0
10
40
20
25.6524
30
0
0
VERTEX
8
0
10
39.969334375
20
25.649284375
30
0
42
0.8579423386022229
0
VERTEX
8
0
10
39.984384375000005
20
25.348403125
30
0
0
VERTEX
8
0
10
40
20
25.3476
30
0
0
VERTEX
8
0
10
43.5
20
25.3476
30
0
0
SEQEND
0
ENDSEC
0
EOF